<?xml version="1.0" encoding="UTF-8"?>
<svg version="1.1" xmlns="http://www.w3.org/2000/svg" width="98" height="95">
<path d="M0 0 C32.34 0 64.68 0 98 0 C98 31.35 98 62.7 98 95 C65.66 95 33.32 95 0 95 C0 63.65 0 32.3 0 0 Z " fill="#F4EB1A" transform="translate(0,0)"/>
<path d="M0 0 C0.7425 0.0825 1.485 0.165 2.25 0.25 C2.25 0.91 2.25 1.57 2.25 2.25 C5.715 1.755 5.715 1.755 9.25 1.25 C9.91 2.57 10.57 3.89 11.25 5.25 C12.9 5.25 14.55 5.25 16.25 5.25 C16.745 7.725 16.745 7.725 17.25 10.25 C16.59 9.92 15.93 9.59 15.25 9.25 C15.25 8.59 15.25 7.93 15.25 7.25 C13.93 7.25 12.61 7.25 11.25 7.25 C11.53875 8.260625 11.8275 9.27125 12.125 10.3125 C13.77796325 16.84170484 14.43302099 23.57510768 15.25 30.25 C16.9 30.58 18.55 30.91 20.25 31.25 C20.25 32.24 20.25 33.23 20.25 34.25 C20.58 32.93 20.91 31.61 21.25 30.25 C25.87 30.25 30.49 30.25 35.25 30.25 C34.26 30.745 34.26 30.745 33.25 31.25 C33.25 32.9 33.25 34.55 33.25 36.25 C32.59 36.25 31.93 36.25 31.25 36.25 C31.25 34.93 31.25 33.61 31.25 32.25 C30.92 33.24 30.59 34.23 30.25 35.25 C28.25 34.25 26.25 33.25 24.25 32.25 C24.25 32.91 24.25 33.57 24.25 34.25 C25.24 34.745 25.24 34.745 26.25 35.25 C25.92 35.58 25.59 35.91 25.25 36.25 C22.94 36.25 20.63 36.25 18.25 36.25 C24.52 36.58 30.79 36.91 37.25 37.25 C36.26 36.59 35.27 35.93 34.25 35.25 C34.91 33.6 35.57 31.95 36.25 30.25 C40.87 30.25 45.49 30.25 50.25 30.25 C49.92 31.57 49.59 32.89 49.25 34.25 C49.91 33.92 50.57 33.59 51.25 33.25 C51.58 32.26 51.91 31.27 52.25 30.25 C52.91 30.25 53.57 30.25 54.25 30.25 C54.25 31.24 54.25 32.23 54.25 33.25 C54.91 33.25 55.57 33.25 56.25 33.25 C56.25 32.26 56.25 31.27 56.25 30.25 C59.82644848 29.0119986 62.58694766 29.50073929 66.25 30.25 C66.30437607 31.83294782 66.34296271 33.41644256 66.375 35 C66.39820312 35.88171875 66.42140625 36.7634375 66.4453125 37.671875 C66.23870725 40.39906426 65.72305841 41.96315408 64.25 44.25 C63.26 44.745 63.26 44.745 62.25 45.25 C61.755 46.24 61.26 47.23 60.75 48.25 C59.25 51.25 59.25 51.25 57.25 52.25 C57.25 52.91 57.25 53.57 57.25 54.25 C56.59 54.25 55.93 54.25 55.25 54.25 C55.25 54.91 55.25 55.57 55.25 56.25 C53.6 56.58 51.95 56.91 50.25 57.25 C50.25 57.91 50.25 58.57 50.25 59.25 C49.59 59.25 48.93 59.25 48.25 59.25 C48.25 59.91 48.25 60.57 48.25 61.25 C44.785 61.745 44.785 61.745 41.25 62.25 C41.25 62.91 41.25 63.57 41.25 64.25 C37.785 64.745 37.785 64.745 34.25 65.25 C33.755 66.735 33.755 66.735 33.25 68.25 C25.56068715 69.31059488 18.00493514 69.34928082 10.25 69.25 C10.25 68.59 10.25 67.93 10.25 67.25 C9.19619141 67.07210937 9.19619141 67.07210937 8.12109375 66.890625 C0.10459666 65.10191 -6.69035041 61.70368463 -12.75 56.25 C-14.96735439 55.39720662 -14.96735439 55.39720662 -16.75 55.25 C-16.75 53.93 -16.75 52.61 -16.75 51.25 C-17.74 51.25 -18.73 51.25 -19.75 51.25 C-20.40104167 49.58984375 -21.05208333 47.9296875 -21.703125 46.26953125 C-22.70865221 44.08142363 -22.70865221 44.08142363 -24.8359375 42.16015625 C-27.68018429 37.83574022 -27.25849714 33.933839 -27.125 28.875 C-27.12371094 27.95460938 -27.12242188 27.03421875 -27.12109375 26.0859375 C-27.05282836 20.77640742 -26.47959964 16.27275734 -24.75 11.25 C-21.78 11.745 -21.78 11.745 -18.75 12.25 C-19.08 13.9 -19.41 15.55 -19.75 17.25 C-18.76 17.25 -17.77 17.25 -16.75 17.25 C-16.93828772 14.80519921 -16.93828772 14.80519921 -17.75 12.25 C-18.41 11.92 -19.07 11.59 -19.75 11.25 C-20.41 10.92 -21.07 10.59 -21.75 10.25 C-22.5 7.625 -22.5 7.625 -22.75 5.25 C-22.358125 5.765625 -21.96625 6.28125 -21.5625 6.8125 C-20.964375 7.286875 -20.36625 7.76125 -19.75 8.25 C-17.09533951 8.01956136 -17.09533951 8.01956136 -14.75 7.25 C-14.42 6.26 -14.09 5.27 -13.75 4.25 C-14.74 4.25 -15.73 4.25 -16.75 4.25 C-16.42 3.26 -16.09 2.27 -15.75 1.25 C-14.43 1.91 -13.11 2.57 -11.75 3.25 C-12.29723683 6.62462715 -12.8049 8.33235 -14.75 11.25 C-15.04991069 13.83885171 -15.25865225 16.34149082 -15.375 18.9375 C-15.43300781 19.9903418 -15.43300781 19.9903418 -15.4921875 21.06445312 C-15.5862334 22.79254655 -15.6691968 24.52123675 -15.75 26.25 C-15.09 26.25 -14.43 26.25 -13.75 26.25 C-13.62753906 25.51136719 -13.50507813 24.77273437 -13.37890625 24.01171875 C-11.44947979 15.53901994 -5.20803484 8.73734165 0.25 2.25 C-0.348125 2.765625 -0.94625 3.28125 -1.5625 3.8125 C-2.284375 4.286875 -3.00625 4.76125 -3.75 5.25 C-4.74 4.92 -5.73 4.59 -6.75 4.25 C-3.42692308 0.31153846 -3.42692308 0.31153846 0 0 Z " fill="#DFE32F" transform="translate(28.75,23.75)"/>
<path d="M0 0 C20.79 0 41.58 0 63 0 C63.99 1.98 64.98 3.96 66 6 C67.98 5.34 69.96 4.68 72 4 C72.99 6.97 72.99 6.97 74 10 C76.97 10.33 79.94 10.66 83 11 C83.4125 12.0725 83.825 13.145 84.25 14.25 C85.35427927 16.88124916 86.083567 18.08117937 88.1875 20.125 C90 22 90 22 90.3125 24.6875 C90 27 90 27 89 28 C89.804375 28.37125 90.60875 28.7425 91.4375 29.125 C94 31 94 31 94.9375 34.0625 C94.958125 35.031875 94.97875 36.00125 95 37 C94.01 37.99 94.01 37.99 93 39 C94.98 39.495 94.98 39.495 97 40 C97.36272727 46.40818182 97.36272727 46.40818182 95.8125 48.9375 C93.31219126 50.40319823 91.84869344 50.49852135 89 50 C86.4138441 47.19034914 85.4838716 44.78660398 84.8125 41.0625 C84.65394531 40.22847656 84.49539062 39.39445312 84.33203125 38.53515625 C83.99893242 35.99184871 83.94042266 33.56182553 84 31 C84.66 31 85.32 31 86 31 C86 30.34 86 29.68 86 29 C85.2575 28.87625 84.515 28.7525 83.75 28.625 C81.15128245 28.03438237 79.23554414 27.43713552 77 26 C76.505 24.515 76.505 24.515 76 23 C75.34 22.67 74.68 22.34 74 22 C74 21.34 74 20.68 74 20 C72.35 19.67 70.7 19.34 69 19 C69 18.34 69 17.68 69 17 C68.01 17 67.02 17 66 17 C66 16.34 66 15.68 66 15 C59.07 14.01 52.14 13.02 45 12 C45 11.34 45 10.68 45 10 C46.32 9.67 47.64 9.34 49 9 C48.175 8.54625 47.35 8.0925 46.5 7.625 C45.675 7.08875 44.85 6.5525 44 6 C44 5.34 44 4.68 44 4 C43.34 4.33 42.68 4.66 42 5 C42.3403125 6.1446875 42.3403125 6.1446875 42.6875 7.3125 C43 10 43 10 42 11.625 C38.06180373 14.33250993 35.14794515 16.20665361 30.3203125 15.7421875 C27.84891621 15.24510779 25.42728674 14.67885887 23 14 C23.34786708 15.97536745 23.34786708 15.97536745 24 18 C24.66 18.33 25.32 18.66 26 19 C24.79040384 20.37167605 23.55648812 21.72193609 22.3125 23.0625 C21.62800781 23.81660156 20.94351562 24.57070313 20.23828125 25.34765625 C18 27 18 27 15.23046875 26.74609375 C14.49441406 26.49988281 13.75835937 26.25367187 13 26 C12.67 26.66 12.34 27.32 12 28 C12.99 28 13.98 28 15 28 C14.67 29.32 14.34 30.64 14 32 C9.25 33.125 9.25 33.125 7 32 C7 32.66 7 33.32 7 34 C8.65 34.66 10.3 35.32 12 36 C12 37.65 12 39.3 12 41 C11.01 41 10.02 41 9 41 C9.33 39.35 9.66 37.7 10 36 C8.02 36 6.04 36 4 36 C3.67 38.97 3.34 41.94 3 45 C2.01 44.67 1.02 44.34 0 44 C0 29.48 0 14.96 0 0 Z " fill="#F5EB1B" transform="translate(0,0)"/>
<path d="M0 0 C0.7425 0.0825 1.485 0.165 2.25 0.25 C2.25 0.91 2.25 1.57 2.25 2.25 C5.715 1.755 5.715 1.755 9.25 1.25 C9.91 2.57 10.57 3.89 11.25 5.25 C12.9 5.25 14.55 5.25 16.25 5.25 C16.58 6.9 16.91 8.55 17.25 10.25 C16.59 9.92 15.93 9.59 15.25 9.25 C15.25 8.59 15.25 7.93 15.25 7.25 C13.93 7.25 12.61 7.25 11.25 7.25 C11.53875 8.260625 11.8275 9.27125 12.125 10.3125 C13.77796325 16.84170484 14.43302099 23.57510768 15.25 30.25 C16.9 30.58 18.55 30.91 20.25 31.25 C20.25 32.24 20.25 33.23 20.25 34.25 C20.58 32.93 20.91 31.61 21.25 30.25 C25.87 30.25 30.49 30.25 35.25 30.25 C34.26 30.745 34.26 30.745 33.25 31.25 C33.25 32.9 33.25 34.55 33.25 36.25 C32.59 36.25 31.93 36.25 31.25 36.25 C31.25 34.93 31.25 33.61 31.25 32.25 C30.92 33.24 30.59 34.23 30.25 35.25 C28.25 34.25 26.25 33.25 24.25 32.25 C24.25 32.91 24.25 33.57 24.25 34.25 C25.24 34.745 25.24 34.745 26.25 35.25 C25.25 36.25 25.25 36.25 21.6875 36.3125 C20.553125 36.291875 19.41875 36.27125 18.25 36.25 C18.105625 37.03375 17.96125 37.8175 17.8125 38.625 C17.25 41.25 17.25 41.25 16.25 43.25 C15.59 43.25 14.93 43.25 14.25 43.25 C14.25 42.59 14.25 41.93 14.25 41.25 C13.63125 40.940625 13.0125 40.63125 12.375 40.3125 C11 39.625 9.625 38.9375 8.25 38.25 C8.25 39.9 8.25 41.55 8.25 43.25 C6.93 42.92 5.61 42.59 4.25 42.25 C4.58 46.21 4.91 50.17 5.25 54.25 C6.24 53.755 6.24 53.755 7.25 53.25 C8.16485573 50.44521805 8.16485573 50.44521805 8.875 47.1875 C9.26558594 45.53041016 9.26558594 45.53041016 9.6640625 43.83984375 C9.85742188 42.98519531 10.05078125 42.13054687 10.25 41.25 C11.24 41.91 12.23 42.57 13.25 43.25 C12.59 45.89 11.93 48.53 11.25 51.25 C13.56 51.25 15.87 51.25 18.25 51.25 C18.25 50.59 18.25 49.93 18.25 49.25 C17.59 49.25 16.93 49.25 16.25 49.25 C16.25 48.59 16.25 47.93 16.25 47.25 C18.95803222 45.89598389 20.81482317 46.33578477 23.8125 46.625 C25.29943359 46.76035156 25.29943359 46.76035156 26.81640625 46.8984375 C29.25 47.25 29.25 47.25 30.25 48.25 C32.09891946 48.48363881 33.95488031 48.66303635 35.8125 48.8125 C36.82441406 48.89628906 37.83632812 48.98007813 38.87890625 49.06640625 C39.66136719 49.12699219 40.44382813 49.18757813 41.25 49.25 C41.25 49.91 41.25 50.57 41.25 51.25 C41.91 51.25 42.57 51.25 43.25 51.25 C46.25 55.63461538 46.25 55.63461538 46.25 58.25 C43.28 58.25 40.31 58.25 37.25 58.25 C37.25 58.91 37.25 59.57 37.25 60.25 C36.59 60.25 35.93 60.25 35.25 60.25 C35.58 59.26 35.91 58.27 36.25 57.25 C37.57 57.25 38.89 57.25 40.25 57.25 C40.25 56.59 40.25 55.93 40.25 55.25 C35.54295759 55.70735915 35.54295759 55.70735915 31.1875 57.375 C28.35595852 58.65376067 26.20479761 57.92154491 23.25 57.25 C22.92 58.9 22.59 60.55 22.25 62.25 C21.59 62.25 20.93 62.25 20.25 62.25 C19.92 58.95 19.59 55.65 19.25 52.25 C16.28 52.25 13.31 52.25 10.25 52.25 C10.08211627 53.87487471 9.91573213 55.49990442 9.75 57.125 C9.61078125 58.48238281 9.61078125 58.48238281 9.46875 59.8671875 C9.21952705 62.18313211 9.21952705 62.18313211 9.25 64.25 C9.91 64.58 10.57 64.91 11.25 65.25 C5.35929358 65.12727695 2.42472488 63.37016079 -1.828125 59.33984375 C-10.40688891 50.01130983 -14.27915394 39.29179166 -14.15234375 26.6953125 C-13.02519454 17.04341344 -5.85230097 9.39000189 0.25 2.25 C-0.348125 2.765625 -0.94625 3.28125 -1.5625 3.8125 C-2.284375 4.286875 -3.00625 4.76125 -3.75 5.25 C-4.74 4.92 -5.73 4.59 -6.75 4.25 C-3.42692308 0.31153846 -3.42692308 0.31153846 0 0 Z " fill="#205307" transform="translate(28.75,23.75)"/>
<path d="M0 0 C0.05437607 1.58294782 0.09296271 3.16644256 0.125 4.75 C0.14820313 5.63171875 0.17140625 6.5134375 0.1953125 7.421875 C-0.01129275 10.14906426 -0.52694159 11.71315408 -2 14 C-2.66 14.33 -3.32 14.66 -4 15 C-4.495 16.485 -4.495 16.485 -5 18 C-9.35587197 18.02501826 -13.71170407 18.04300806 -18.06762695 18.05493164 C-19.5445224 18.05991084 -21.02141305 18.06669663 -22.49829102 18.07543945 C-30.36564676 18.12079213 -38.15145302 18.06957549 -45.98510742 17.21655273 C-47.99367529 16.96437978 -47.99367529 16.96437978 -50 17 C-50 17.66 -50 18.32 -50 19 C-49.34 19 -48.68 19 -48 19 C-48 19.66 -48 20.32 -48 21 C-50.31 21 -52.62 21 -55 21 C-54.70703125 18.94921875 -54.4140625 16.8984375 -54.12109375 14.84765625 C-54.08113281 14.23792969 -54.04117188 13.62820312 -54 13 C-54.33 12.67 -54.66 12.34 -55 12 C-55.18175781 12.78246094 -55.36351562 13.56492187 -55.55078125 14.37109375 C-55.80214844 15.38300781 -56.05351563 16.39492187 -56.3125 17.4375 C-56.55613281 18.44683594 -56.79976562 19.45617187 -57.05078125 20.49609375 C-57.36402344 21.32238281 -57.67726563 22.14867188 -58 23 C-58.99 23.33 -59.98 23.66 -61 24 C-62.3271261 20.0186217 -62.06915913 16.14954773 -62 12 C-60.68 12.33 -59.36 12.66 -58 13 C-58.33 10.69 -58.66 8.38 -59 6 C-57.82780457 6.78345715 -56.66236332 7.57702836 -55.5 8.375 C-54.8503125 8.81585938 -54.200625 9.25671875 -53.53125 9.7109375 C-53.0259375 10.13632813 -52.520625 10.56171875 -52 11 C-52 11.66 -52 12.32 -52 13 C-51.34 13 -50.68 13 -50 13 C-49.34 11.02 -48.68 9.04 -48 7 C-41.73 7 -35.46 7 -29 7 C-29.99 6.34 -30.98 5.68 -32 5 C-31.34 3.35 -30.68 1.7 -30 0 C-25.38 0 -20.76 0 -16 0 C-16.33 1.32 -16.66 2.64 -17 4 C-16.34 3.67 -15.68 3.34 -15 3 C-14.67 2.01 -14.34 1.02 -14 0 C-13.34 0 -12.68 0 -12 0 C-12 0.99 -12 1.98 -12 3 C-11.34 3 -10.68 3 -10 3 C-10 2.01 -10 1.02 -10 0 C-6.30581799 -1.231394 -3.7943739 -0.64432764 0 0 Z " fill="#A2AC0C" transform="translate(95,54)"/>
<path d="M0 0 C0.7425 0.0825 1.485 0.165 2.25 0.25 C2.25 0.91 2.25 1.57 2.25 2.25 C5.715 1.755 5.715 1.755 9.25 1.25 C9.91 2.57 10.57 3.89 11.25 5.25 C12.9 5.25 14.55 5.25 16.25 5.25 C16.58 6.9 16.91 8.55 17.25 10.25 C16.59 9.92 15.93 9.59 15.25 9.25 C15.25 8.59 15.25 7.93 15.25 7.25 C13.93 7.25 12.61 7.25 11.25 7.25 C11.58 8.384375 11.91 9.51875 12.25 10.6875 C13.34632632 15.18483863 14.15276239 19.65242659 13.25 24.25 C11.125 26.4375 11.125 26.4375 8.25 27.25 C4.63589756 26.43867088 1.50260801 25.00140432 -1.75 23.25 C-1.42 21.6 -1.09 19.95 -0.75 18.25 C-1.41 17.92 -2.07 17.59 -2.75 17.25 C-3.08 17.91 -3.41 18.57 -3.75 19.25 C-4.74 19.91 -5.73 20.57 -6.75 21.25 C-6.75 20.59 -6.75 19.93 -6.75 19.25 C-7.41 19.25 -8.07 19.25 -8.75 19.25 C-9.08 19.91 -9.41 20.57 -9.75 21.25 C-10.34983548 17.90805948 -10.141628 15.85955003 -8.296875 12.98828125 C-6.4949783 10.6980554 -4.63599128 8.47118887 -2.75 6.25 C-1.74054598 4.92380984 -0.73731742 3.59275169 0.25 2.25 C-0.348125 2.765625 -0.94625 3.28125 -1.5625 3.8125 C-2.284375 4.286875 -3.00625 4.76125 -3.75 5.25 C-4.74 4.92 -5.73 4.59 -6.75 4.25 C-3.42692308 0.31153846 -3.42692308 0.31153846 0 0 Z " fill="#194F05" transform="translate(28.75,23.75)"/>
<path d="M0 0 C-1.32 0.33 -2.64 0.66 -4 1 C-4 1.66 -4 2.32 -4 3 C-1.525 3.99 -1.525 3.99 1 5 C1.33 3.02 1.66 1.04 2 -1 C4.64 -0.67 7.28 -0.34 10 0 C11 3 11 3 10 6 C7.525 5.505 7.525 5.505 5 5 C5 5.99 5 6.98 5 8 C6.98 7.67 8.96 7.34 11 7 C11 7.66 11 8.32 11 9 C11.928125 8.175 12.85625 7.35 13.8125 6.5 C16.625 4 16.625 4 20 4 C20.495 8.95 20.495 8.95 21 14 C20.01 13.67 19.02 13.34 18 13 C17.505 10.525 17.505 10.525 17 8 C16.60127686 8.49798096 16.20255371 8.99596191 15.79174805 9.5090332 C14 11 14 11 11.82348633 11.15698242 C11.00130615 11.05748291 10.17912598 10.9579834 9.33203125 10.85546875 C8.43935547 10.75556641 7.54667969 10.65566406 6.62695312 10.55273438 C5.69818359 10.43220703 4.76941406 10.31167969 3.8125 10.1875 C2.87212891 10.07857422 1.93175781 9.96964844 0.96289062 9.85742188 C-1.36021861 9.58619592 -3.68044459 9.29987972 -6 9 C-6 8.34 -6 7.68 -6 7 C-4.68 6.67 -3.36 6.34 -2 6 C-2.825 5.54625 -3.65 5.0925 -4.5 4.625 C-5.325 4.08875 -6.15 3.5525 -7 3 C-7 2.34 -7 1.68 -7 1 C-7.66 1.33 -8.32 1.66 -9 2 C-8.6596875 3.1446875 -8.6596875 3.1446875 -8.3125 4.3125 C-8 7 -8 7 -9 8.625 C-12.93819627 11.33250993 -15.85205485 13.20665361 -20.6796875 12.7421875 C-23.15108379 12.24510779 -25.57271326 11.67885887 -28 11 C-27.65213292 12.97536745 -27.65213292 12.97536745 -27 15 C-26.34 15.33 -25.68 15.66 -25 16 C-27.64 18.64 -30.28 21.28 -33 24 C-34.49739583 22.69791667 -35.99479167 21.39583333 -37.4921875 20.09375 C-38.95936421 18.80427542 -38.95936421 18.80427542 -41 19 C-39.71480435 16.13302508 -38.42870746 14.02392288 -36 12 C-35.34 12 -34.68 12 -34 12 C-34 14 -34 14 -35.5 15.625 C-36.2425 16.305625 -36.2425 16.305625 -37 17 C-36.34 17.33 -35.68 17.66 -35 18 C-35 18.66 -35 19.32 -35 20 C-33.01508358 19.73323796 -33.01508358 19.73323796 -31 19 C-30.67 18.01 -30.34 17.02 -30 16 C-29.34 16 -28.68 16 -28 16 C-28.495 15.401875 -28.99 14.80375 -29.5 14.1875 C-31 12 -31 12 -31 9 C-28.36 9 -25.72 9 -23 9 C-23.33 8.01 -23.66 7.02 -24 6 C-24.66 5.67 -25.32 5.34 -26 5 C-25.01 4.67 -24.02 4.34 -23 4 C-22.319375 5.4540625 -22.319375 5.4540625 -21.625 6.9375 C-20.34213779 10.07079582 -20.34213779 10.07079582 -18 11 C-18.66 8.03 -19.32 5.06 -20 2 C-14.05597468 -0.97201266 -6.40576194 -1.92172858 0 0 Z " fill="#A7AA13" transform="translate(51,3)"/>
<path d="M0 0 C2.90590535 1.12774305 4.34377672 2.77419077 6.4140625 5.08984375 C7.12046875 5.858125 7.826875 6.62640625 8.5546875 7.41796875 C10.39463325 10.18681915 10.59095601 11.58197223 10.1640625 14.83984375 C9.8340625 15.16984375 9.5040625 15.49984375 9.1640625 15.83984375 C9.9684375 16.21109375 10.7728125 16.58234375 11.6015625 16.96484375 C14.1640625 18.83984375 14.1640625 18.83984375 15.1015625 21.90234375 C15.1221875 22.87171875 15.1428125 23.84109375 15.1640625 24.83984375 C14.5040625 25.49984375 13.8440625 26.15984375 13.1640625 26.83984375 C14.4840625 27.16984375 15.8040625 27.49984375 17.1640625 27.83984375 C17.52678977 34.24802557 17.52678977 34.24802557 15.9765625 36.77734375 C13.47625376 38.24304198 12.01275594 38.3383651 9.1640625 37.83984375 C6.5779066 35.03019289 5.6479341 32.62644773 4.9765625 28.90234375 C4.81800781 28.06832031 4.65945312 27.23429687 4.49609375 26.375 C4.16299492 23.83169246 4.10448516 21.40166928 4.1640625 18.83984375 C4.8240625 18.83984375 5.4840625 18.83984375 6.1640625 18.83984375 C6.1640625 18.17984375 6.1640625 17.51984375 6.1640625 16.83984375 C5.3803125 16.71609375 4.5965625 16.59234375 3.7890625 16.46484375 C1.1640625 15.83984375 1.1640625 15.83984375 -0.8359375 13.83984375 C-0.87759513 11.84027764 -0.87759513 9.83940986 -0.8359375 7.83984375 C-1.1659375 7.17984375 -1.4959375 6.51984375 -1.8359375 5.83984375 C-3.4859375 6.16984375 -5.1359375 6.49984375 -6.8359375 6.83984375 C-3.62793072 -0.31647906 -3.62793072 -0.31647906 0 0 Z " fill="#979A05" transform="translate(79.8359375,12.16015625)"/>
<path d="M0 0 C9.57 0 19.14 0 29 0 C29.99 1.98 30.98 3.96 32 6 C33.98 5.34 35.96 4.68 38 4 C38.66 5.98 39.32 7.96 40 10 C42.97 10.33 45.94 10.66 49 11 C48.67 11.99 48.34 12.98 48 14 C46.68 13.67 45.36 13.34 44 13 C42.35 14.98 40.7 16.96 39 19 C40.65 18.34 42.3 17.68 44 17 C45.125 18.6875 45.125 18.6875 46 21 C45.125 23.75 45.125 23.75 44 26 C42.62437146 24.71034824 41.29233607 23.37310707 40 22 C40 21.34 40 20.68 40 20 C38.35 19.67 36.7 19.34 35 19 C35 18.34 35 17.68 35 17 C34.01 17 33.02 17 32 17 C32 16.34 32 15.68 32 15 C31.34 14.67 30.68 14.34 30 14 C30.66 13.01 31.32 12.02 32 11 C32.66 11 33.32 11 34 11 C34.33 10.34 34.66 9.68 35 9 C35.495 12.465 35.495 12.465 36 16 C36.33 16 36.66 16 37 16 C37 13.03 37 10.06 37 7 C36.2575 7.45375 35.515 7.9075 34.75 8.375 C32.53069422 9.68640796 30.32032178 10.88280803 28 12 C27.505 11.505 27.505 11.505 27 11 C25.33382885 10.95936168 23.66611905 10.957279 22 11 C22 10.01 22 9.02 22 8 C24.475 8.495 24.475 8.495 27 9 C27 7.35 27 5.7 27 4 C24.36 3.34 21.72 2.68 19 2 C19 4.64 19 7.28 19 10 C16.96166576 8.7260411 14.96147874 7.38938077 13 6 C13 5.34 13 4.68 13 4 C13.99 3.67 14.98 3.34 16 3 C13.77057252 3.14179038 11.54146372 3.28859698 9.3125 3.4375 C8.07113281 3.51871094 6.82976563 3.59992188 5.55078125 3.68359375 C2.61819663 3.94491317 -0.13441617 4.34798379 -3 5 C-2.67 5.556875 -2.34 6.11375 -2 6.6875 C-0.8690399 9.30284522 -0.84337026 11.1806646 -1 14 C-4 13 -4 13 -5.1875 11.3125 C-6.19313465 8.45030907 -6.13689641 6.01172092 -6 3 C-4.35 3 -2.7 3 -1 3 C-0.67 2.01 -0.34 1.02 0 0 Z " fill="#E8E72B" transform="translate(34,0)"/>
<path d="M0 0 C2.97 0 5.94 0 9 0 C10.60725635 3.21451269 10.05748185 6.43612536 10 10 C10.66 10 11.32 10 12 10 C12.33 8.35 12.66 6.7 13 5 C14.27875 5.04125 15.5575 5.0825 16.875 5.125 C19.01871492 5.24212873 19.01871492 5.24212873 21 5 C21.66 4.34 22.32 3.68 23 3 C26.625 2.875 26.625 2.875 30 3 C30 3.66 30 4.32 30 5 C29.360625 5.103125 28.72125 5.20625 28.0625 5.3125 C27.0415625 5.6528125 27.0415625 5.6528125 26 6 C25.67 6.99 25.34 7.98 25 9 C20.24449575 13.41488962 15.04187506 15.77877272 8.5625 16.25 C4.71017808 15.97966162 1.65673301 15.19403527 -2 14 C-1.67 13.34 -1.34 12.68 -1 12 C-1.185625 10.906875 -1.37125 9.81375 -1.5625 8.6875 C-2.00915824 4.92280915 -1.7017384 3.30337453 0 0 Z " fill="#255509" transform="translate(39,76)"/>
<path d="M0 0 C2.3431213 0.25561323 4.67843403 0.59270772 7 1 C7.33 1.66 7.66 2.32 8 3 C6.68 3 5.36 3 4 3 C4 4.65 4 6.3 4 8 C5.2375 7.979375 6.475 7.95875 7.75 7.9375 C10.6640825 7.93233319 13.20953327 8.06984442 16 9 C16 9.66 16 10.32 16 11 C18.31 11.66 20.62 12.32 23 13 C20.64046906 15.35953094 19.22104383 15.49141413 16 16 C15.67 14.35 15.34 12.7 15 11 C12.69 11.33 10.38 11.66 8 12 C8 11.34 8 10.68 8 10 C6.35 10.33 4.7 10.66 3 11 C2.67 11.99 2.34 12.98 2 14 C3.32 13.34 4.64 12.68 6 12 C4.59193884 15.10050906 2.87729535 17.4648492 0.6875 20.0625 C-3.22199303 24.96981343 -5.65253854 30.21247981 -8 36 C-8.66 36 -9.32 36 -10 36 C-10.08112454 33.41603321 -10.14054748 30.83462432 -10.1875 28.25 C-10.21263672 27.52039063 -10.23777344 26.79078125 -10.26367188 26.0390625 C-10.32335988 21.6619423 -10.06628878 19.18833012 -7 16 C-6.3503125 14.824375 -6.3503125 14.824375 -5.6875 13.625 C-3.50934043 10.23675178 -0.91087513 7.7815029 2 5 C1.34 3.35 0.68 1.7 0 0 Z " fill="#EAEB2F" transform="translate(23,14)"/>
<path d="M0 0 C1.10868317 3.32604951 1.54177532 6.53058454 2 10 C2.99 10.33 3.98 10.66 5 11 C5.33 9.68 5.66 8.36 6 7 C6.02465098 11.96622349 6.04283649 16.93241166 6.05493164 21.89868164 C6.0599719 23.58944316 6.06680405 25.28020029 6.07543945 26.97094727 C6.08751857 29.39600707 6.09323123 31.82100944 6.09765625 34.24609375 C6.10281754 35.00651474 6.10797882 35.76693573 6.11329651 36.55039978 C6.11349238 38.3673257 6.06197277 40.18413127 6 42 C5.67 42.33 5.34 42.66 5 43 C4.87625 44.11375 4.7525 45.2275 4.625 46.375 C3.98865211 50.06581774 3.71233227 50.73972311 1 53 C0.67 53.99 0.34 54.98 0 56 C-1.98260426 57.68732277 -3.9832342 59.35366057 -6 61 C-6.66 61.99 -7.32 62.98 -8 64 C-8.66 64 -9.32 64 -10 64 C-10.495 64.99 -10.495 64.99 -11 66 C-11.33 65.01 -11.66 64.02 -12 63 C-11.34 63 -10.68 63 -10 63 C-10 62.34 -10 61.68 -10 61 C-9.34 61 -8.68 61 -8 61 C-8 60.34 -8 59.68 -8 59 C-7.34 59 -6.68 59 -6 59 C-5.731875 58.278125 -5.46375 57.55625 -5.1875 56.8125 C-4.00098638 54.00233617 -2.72514361 51.51583443 -1 49 C-0.34 49 0.32 49 1 49 C1.16852247 47.39602723 1.33474886 45.7918131 1.5 44.1875 C1.5928125 43.29417969 1.685625 42.40085938 1.78125 41.48046875 C2.04392401 38.91694901 2.04392401 38.91694901 2 36 C-0.97 35.67 -3.94 35.34 -7 35 C-7 35.99 -7 36.98 -7 38 C-7.66 38 -8.32 38 -9 38 C-8.505 35.03 -8.505 35.03 -8 32 C-7.01 31.67 -6.02 31.34 -5 31 C-4.67 30.34 -4.34 29.68 -4 29 C-3.67 29.33 -3.34 29.66 -3 30 C-0.54190002 30.2500773 -0.54190002 30.2500773 2 30 C4.41121859 28.04366025 4.41121859 28.04366025 4.125 24.375 C4.08375 23.26125 4.0425 22.1475 4 21 C2.35 21 0.7 21 -1 21 C-0.484375 20.62875 0.03125 20.2575 0.5625 19.875 C2.3105536 17.98870213 2.3105536 17.98870213 2 14.9375 C1.29951799 11.78570429 1.29951799 11.78570429 -1.5625 10.625 C-2.7690625 10.315625 -2.7690625 10.315625 -4 10 C-3.835 8.88625 -3.67 7.7725 -3.5 6.625 C-2.9544542 3.27967967 -2.9544542 3.27967967 -3 1 C-2.01 0.67 -1.02 0.34 0 0 Z " fill="#E3E328" transform="translate(92,19)"/>
<path d="M0 0 C9.9 0 19.8 0 30 0 C29.67 1.32 29.34 2.64 29 4 C28.34 4 27.68 4 27 4 C27 4.66 27 5.32 27 6 C26.34 6 25.68 6 25 6 C25 6.66 25 7.32 25 8 C23.35 8.33 21.7 8.66 20 9 C20 9.66 20 10.32 20 11 C19.34 11 18.68 11 18 11 C18 11.66 18 12.32 18 13 C15.69 13.33 13.38 13.66 11 14 C11 14.66 11 15.32 11 16 C8.69 16.33 6.38 16.66 4 17 C4 17.66 4 18.32 4 19 C1.03 19 -1.94 19 -5 19 C4.1 12 4.1 12 7 12 C7 11.34 7 10.68 7 10 C9.97 10 12.94 10 16 10 C15.505 9.21625 15.01 8.4325 14.5 7.625 C13 5 13 5 13 3 C12.34 3 11.68 3 11 3 C11 2.34 11 1.68 11 1 C7.37 1 3.74 1 0 1 C0 0.67 0 0.34 0 0 Z " fill="#A0AF1B" transform="translate(59,72)"/>
<path d="M0 0 C1.17219543 0.78345715 2.33763668 1.57702836 3.5 2.375 C4.47453125 3.03628906 4.47453125 3.03628906 5.46875 3.7109375 C6.22671875 4.34902344 6.22671875 4.34902344 7 5 C7 5.66 7 6.32 7 7 C7.66 7 8.32 7 9 7 C9.33 6.34 9.66 5.68 10 5 C10 6.32 10 7.64 10 9 C11.28648438 8.82597656 12.57296875 8.65195313 13.8984375 8.47265625 C21.80207982 7.68229202 29.70350582 8.1479307 37.625 8.4375 C39.21742773 8.49084033 40.80987573 8.54357945 42.40234375 8.59570312 C46.26849754 8.72354064 50.13428638 8.8595039 54 9 C54 9.99 54 10.98 54 12 C49.64412803 12.02501826 45.28829593 12.04300806 40.93237305 12.05493164 C39.4554776 12.05991084 37.97858695 12.06669663 36.50170898 12.07543945 C28.63435324 12.12079213 20.84854698 12.06957549 13.01489258 11.21655273 C11.00632471 10.96437978 11.00632471 10.96437978 9 11 C9 11.66 9 12.32 9 13 C9.66 13 10.32 13 11 13 C11 13.66 11 14.32 11 15 C8.69 15 6.38 15 4 15 C4.29296875 12.94921875 4.5859375 10.8984375 4.87890625 8.84765625 C4.91886719 8.23792969 4.95882812 7.62820312 5 7 C4.67 6.67 4.34 6.34 4 6 C3.81824219 6.78246094 3.63648438 7.56492187 3.44921875 8.37109375 C3.19785156 9.38300781 2.94648437 10.39492187 2.6875 11.4375 C2.44386719 12.44683594 2.20023438 13.45617187 1.94921875 14.49609375 C1.63597656 15.32238281 1.32273437 16.14867188 1 17 C0.01 17.33 -0.98 17.66 -2 18 C-3.3271261 14.0186217 -3.06915913 10.14954773 -3 6 C-1.68 6.33 -0.36 6.66 1 7 C0.67 4.69 0.34 2.38 0 0 Z " fill="#8EA934" transform="translate(36,60)"/>
<path d="M0 0 C0.94875 0.04125 1.8975 0.0825 2.875 0.125 C2.91367187 1.14207031 2.91367187 1.14207031 2.953125 2.1796875 C3.57704294 12.41761366 6.57374653 20.07339835 12.875 28.125 C8.09816486 28.125 5.2915791 25.28323663 1.875 22.125 C-2.27288241 17.03317936 -6.49528709 11.19815794 -5.875 4.375 C-4.67578962 0.77736885 -3.80711181 0.15228447 0 0 Z " fill="#265207" transform="translate(11.125,52.875)"/>
<path d="M0 0 C15.18 0.33 30.36 0.66 46 1 C45.67 2.32 45.34 3.64 45 5 C30.15 5 15.3 5 0 5 C0 3.35 0 1.7 0 0 Z " fill="#9AA917" transform="translate(46,64)"/>
<path d="M0 0 C1.32 0.66 2.64 1.32 4 2 C3.45276317 5.37462715 2.9451 7.08235 1 10 C0.70008931 12.58885171 0.49134775 15.09149082 0.375 17.6875 C0.31699219 18.7403418 0.31699219 18.7403418 0.2578125 19.81445312 C0.1637666 21.54254655 0.0808032 23.27123675 0 25 C0.66 25 1.32 25 2 25 C2.14695312 26.34191406 2.14695312 26.34191406 2.296875 27.7109375 C3.77647243 39.67526843 6.93970197 48.25678872 14 58 C12.68 58 11.36 58 10 58 C9.773125 57.34 9.54625 56.68 9.3125 56 C8.19677922 53.44978107 7.00835793 51.38065481 5.5 49.0625 C1.06257861 42.02022063 0.73794763 36.18185737 1 28 C-2.3 27.67 -5.6 27.34 -9 27 C-9 26.34 -9 25.68 -9 25 C-6.36 25 -3.72 25 -1 25 C-1.33 22.69 -1.66 20.38 -2 18 C-4.31 17.67 -6.62 17.34 -9 17 C-9 16.67 -9 16.34 -9 16 C-6.36 16 -3.72 16 -1 16 C-1.18828772 13.55519921 -1.18828772 13.55519921 -2 11 C-2.66 10.67 -3.32 10.34 -4 10 C-4.66 9.67 -5.32 9.34 -6 9 C-6.75 6.375 -6.75 6.375 -7 4 C-6.608125 4.515625 -6.21625 5.03125 -5.8125 5.5625 C-5.214375 6.036875 -4.61625 6.51125 -4 7 C-1.34533951 6.76956136 -1.34533951 6.76956136 1 6 C1.33 5.01 1.66 4.02 2 3 C1.01 3 0.02 3 -1 3 C-0.67 2.01 -0.34 1.02 0 0 Z " fill="#8E9304" transform="translate(13,25)"/>
<path d="M0 0 C0.33 0 0.66 0 1 0 C1.185625 0.78375 1.37125 1.5675 1.5625 2.375 C4.99540451 11.03188963 10.88722342 18.3129365 19 23 C20.66343238 23.34911544 22.33016077 23.68294192 24 24 C26.01552275 25.13422555 27.84943539 26.41958338 29.7421875 27.74609375 C35.78584899 31.10252167 41.72826866 31.26556407 48.4375 31.125 C49.26443359 31.11597656 50.09136719 31.10695313 50.94335938 31.09765625 C52.96236708 31.07431512 54.98122356 31.03845288 57 31 C57 31.33 57 31.66 57 32 C49.31068715 33.06059488 41.75493514 33.09928082 34 33 C34 32.34 34 31.68 34 31 C33.29746094 30.88140625 32.59492187 30.7628125 31.87109375 30.640625 C23.85459666 28.85191 17.05964959 25.45368463 11 20 C8.78264561 19.14720662 8.78264561 19.14720662 7 19 C7 17.68 7 16.36 7 15 C6.01 15 5.02 15 4 15 C3.525625 13.865625 3.05125 12.73125 2.5625 11.5625 C1.36377917 8.24259834 1.36377917 8.24259834 0 7 C-0.04092937 4.66702567 -0.04241723 2.33294775 0 0 Z " fill="#E2E93A" transform="translate(5,60)"/>
<path d="M0 0 C2.97 0 5.94 0 9 0 C10.23076923 6.4 10.23076923 6.4 9.0625 9.4375 C8.711875 9.953125 8.36125 10.46875 8 11 C7.34 11 6.68 11 6 11 C6 11.66 6 12.32 6 13 C3.69 12.67 1.38 12.34 -1 12 C-1.92470553 7.28400182 -2.22923777 4.32734391 0 0 Z " fill="#99B22C" transform="translate(39,76)"/>
<path d="M0 0 C0.33 0.66 0.66 1.32 1 2 C1.99 2 2.98 2 4 2 C4 3.65 4 5.3 4 7 C4.66 7.33 5.32 7.66 6 8 C-0.93 8 -7.86 8 -15 8 C-15.33 5.69 -15.66 3.38 -16 1 C-13.69 1 -11.38 1 -9 1 C-9.33 2.32 -9.66 3.64 -10 5 C-9.34 4.67 -8.68 4.34 -8 4 C-7.67 3.01 -7.34 2.02 -7 1 C-6.34 1 -5.68 1 -5 1 C-5 1.99 -5 2.98 -5 4 C-4.34 4 -3.68 4 -3 4 C-3 3.01 -3 2.02 -3 1 C-2.01 0.67 -1.02 0.34 0 0 Z " fill="#BEC635" transform="translate(88,53)"/>
<path d="M0 0 C0.7425 0.0825 1.485 0.165 2.25 0.25 C2.25 0.91 2.25 1.57 2.25 2.25 C5.715 1.755 5.715 1.755 9.25 1.25 C9.91 2.57 10.57 3.89 11.25 5.25 C12.9 5.25 14.55 5.25 16.25 5.25 C16.58 6.9 16.91 8.55 17.25 10.25 C16.59 9.92 15.93 9.59 15.25 9.25 C15.25 8.59 15.25 7.93 15.25 7.25 C13.93 7.25 12.61 7.25 11.25 7.25 C10.92 8.57 10.59 9.89 10.25 11.25 C10.12625 10.610625 10.0025 9.97125 9.875 9.3125 C9.66875 8.631875 9.4625 7.95125 9.25 7.25 C8.59 6.92 7.93 6.59 7.25 6.25 C6.92 6.91 6.59 7.57 6.25 8.25 C5.26 7.59 4.27 6.93 3.25 6.25 C3.45625 7.36375 3.6625 8.4775 3.875 9.625 C3.99875 10.82125 4.1225 12.0175 4.25 13.25 C3.59 13.91 2.93 14.57 2.25 15.25 C0.93 15.25 -0.39 15.25 -1.75 15.25 C-1.75 14.59 -1.75 13.93 -1.75 13.25 C-0.43 12.59 0.89 11.93 2.25 11.25 C0.6 10.92 -1.05 10.59 -2.75 10.25 C-1.76 7.61 -0.77 4.97 0.25 2.25 C-0.348125 2.765625 -0.94625 3.28125 -1.5625 3.8125 C-2.284375 4.286875 -3.00625 4.76125 -3.75 5.25 C-4.74 4.92 -5.73 4.59 -6.75 4.25 C-3.42692308 0.31153846 -3.42692308 0.31153846 0 0 Z " fill="#577106" transform="translate(28.75,23.75)"/>
<path d="M0 0 C2.31 0 4.62 0 7 0 C7 0.66 7 1.32 7 2 C7.51208008 1.67402832 8.02416016 1.34805664 8.55175781 1.01220703 C11.85401946 -0.35308782 14.60306273 -0.22456506 18.171875 -0.1953125 C19.1955014 -0.19106766 19.1955014 -0.19106766 20.23980713 -0.18673706 C22.41005307 -0.17558098 24.57987971 -0.15048557 26.75 -0.125 C28.22525444 -0.11496426 29.70051537 -0.10583944 31.17578125 -0.09765625 C34.78398942 -0.07565687 38.39195375 -0.04115883 42 0 C42.495 1.485 42.495 1.485 43 3 C28.48 3 13.96 3 -1 3 C-0.67 2.01 -0.34 1.02 0 0 Z " fill="#ADBD1B" transform="translate(48,62)"/>
<path d="M0 0 C0.33 0.99 0.66 1.98 1 3 C2.65 3.33 4.3 3.66 6 4 C6 4.99 6 5.98 6 7 C6.33 5.68 6.66 4.36 7 3 C11.62 3 16.24 3 21 3 C20.01 3.495 20.01 3.495 19 4 C19 5.65 19 7.3 19 9 C18.34 9 17.68 9 17 9 C17 7.68 17 6.36 17 5 C16.67 5.99 16.34 6.98 16 8 C14 7 12 6 10 5 C10 5.66 10 6.32 10 7 C10.66 7.33 11.32 7.66 12 8 C11.67 8.33 11.34 8.66 11 9 C8.66666667 9 6.33333333 9 4 9 C3.01 9.33 2.02 9.66 1 10 C0.773125 9.236875 0.54625 8.47375 0.3125 7.6875 C-1.26731682 4.45263699 -2.83282717 3.58358642 -6 2 C-5.01 1.67 -4.02 1.34 -3 1 C-2.01 1.66 -1.02 2.32 0 3 C0 2.01 0 1.02 0 0 Z " fill="#8A970E" transform="translate(43,51)"/>
<path d="M0 0 C11.88 0 23.76 0 36 0 C36 0.99 36 1.98 36 3 C31.51598515 3.07427649 27.03229826 3.12866111 22.54785156 3.16479492 C21.0230485 3.17986151 19.49828864 3.20031876 17.97363281 3.22631836 C15.77918834 3.26279706 13.58531784 3.27974714 11.390625 3.29296875 C10.07094727 3.3086792 8.75126953 3.32438965 7.39160156 3.34057617 C4 3 4 3 0 0 Z " fill="#AABB26" transform="translate(54,69)"/>
<path d="M0 0 C0.66 0 1.32 0 2 0 C2.680625 1.4540625 2.680625 1.4540625 3.375 2.9375 C4.65786221 6.07079582 4.65786221 6.07079582 7 7 C7.33 6.34 7.66 5.68 8 5 C7.67 6.32 7.34 7.64 7 9 C3.7 8.34 0.4 7.68 -3 7 C-2.67 8.32 -2.34 9.64 -2 11 C-1.34 11.33 -0.68 11.66 0 12 C-2.64 14.64 -5.28 17.28 -8 20 C-9.49739583 18.69791667 -10.99479167 17.39583333 -12.4921875 16.09375 C-13.95936421 14.80427542 -13.95936421 14.80427542 -16 15 C-14.71480435 12.13302508 -13.42870746 10.02392288 -11 8 C-10.34 8 -9.68 8 -9 8 C-9 10 -9 10 -10.5 11.625 C-10.995 12.07875 -11.49 12.5325 -12 13 C-11.34 13.33 -10.68 13.66 -10 14 C-10 14.66 -10 15.32 -10 16 C-8.01508358 15.73323796 -8.01508358 15.73323796 -6 15 C-5.67 14.01 -5.34 13.02 -5 12 C-4.34 12 -3.68 12 -3 12 C-3.495 11.401875 -3.99 10.80375 -4.5 10.1875 C-6 8 -6 8 -6 5 C-3.36 5 -0.72 5 2 5 C1.67 4.01 1.34 3.02 1 2 C0.34 1.67 -0.32 1.34 -1 1 C-0.67 0.67 -0.34 0.34 0 0 Z " fill="#8E9707" transform="translate(26,7)"/>
<path d="M0 0 C1.32 0 2.64 0 4 0 C4.33 0.66 4.66 1.32 5 2 C5.66 1.34 6.32 0.68 7 0 C7 1.32 7 2.64 7 4 C5.68 4 4.36 4 3 4 C3.66 6.64 4.32 9.28 5 12 C5.33 12 5.66 12 6 12 C6.309375 13.918125 6.309375 13.918125 6.625 15.875 C7.08483533 18.07813968 7.08483533 18.07813968 8 20 C10.99428144 21.61147442 10.99428144 21.61147442 14 22 C12.68 22.33 11.36 22.66 10 23 C10 24.65 10 26.3 10 28 C9.34 27.67 8.68 27.34 8 27 C8 26.01 8 25.02 8 24 C7.38125 23.95875 6.7625 23.9175 6.125 23.875 C4 23 4 23 2.875 20.6875 C1.25858909 13.87548258 -0.18049644 7.02646872 0 0 Z " fill="#E2E839" transform="translate(40,31)"/>
<path d="M0 0 C4.29 0 8.58 0 13 0 C13 0.66 13 1.32 13 2 C13.66 2 14.32 2 15 2 C18 6.38461538 18 6.38461538 18 9 C15.03 9 12.06 9 9 9 C9 9.66 9 10.32 9 11 C8.34 11 7.68 11 7 11 C7.33 10.01 7.66 9.02 8 8 C9.32 8 10.64 8 12 8 C11.67 7.34 11.34 6.68 11 6 C8.47266765 5.34444881 8.47266765 5.34444881 6 5 C6 4.34 6 3.68 6 3 C4.02 3.33 2.04 3.66 0 4 C-0.33 3.34 -0.66 2.68 -1 2 C-0.67 1.34 -0.34 0.68 0 0 Z " fill="#204F04" transform="translate(57,73)"/>
<path d="M0 0 C0.66 0 1.32 0 2 0 C2.02689216 1.47906892 2.04634621 2.95827483 2.0625 4.4375 C2.07410156 5.26121094 2.08570312 6.08492187 2.09765625 6.93359375 C2 9 2 9 1 10 C0.87625 11.11375 0.7525 12.2275 0.625 13.375 C-0.01134789 17.06581774 -0.28766773 17.73972311 -3 20 C-3.33 20.99 -3.66 21.98 -4 23 C-5.98260426 24.68732277 -7.9832342 26.35366057 -10 28 C-10.66 28.99 -11.32 29.98 -12 31 C-12.66 31 -13.32 31 -14 31 C-14.33 31.66 -14.66 32.32 -15 33 C-15.33 32.01 -15.66 31.02 -16 30 C-15.34 30 -14.68 30 -14 30 C-14 29.34 -14 28.68 -14 28 C-13.34 28 -12.68 28 -12 28 C-12 27.34 -12 26.68 -12 26 C-11.34 26 -10.68 26 -10 26 C-9.5978125 24.9171875 -9.5978125 24.9171875 -9.1875 23.8125 C-8.00098638 21.00233617 -6.72514361 18.51583443 -5 16 C-4.34 16 -3.68 16 -3 16 C-2.83211627 14.37512529 -2.66573213 12.75009558 -2.5 11.125 C-2.4071875 10.22007813 -2.314375 9.31515625 -2.21875 8.3828125 C-1.96952705 6.06686789 -1.96952705 6.06686789 -2 4 C-1.34 4 -0.68 4 0 4 C0 2.68 0 1.36 0 0 Z " fill="#EDEA26" transform="translate(96,52)"/>
<path d="M0 0 C2.97239004 1.1803715 4.36145842 2.99296017 6.4140625 5.421875 C7.12046875 6.24816406 7.826875 7.07445312 8.5546875 7.92578125 C9.08578125 8.56386719 9.616875 9.20195312 10.1640625 9.859375 C9.1740625 11.344375 9.1740625 11.344375 8.1640625 12.859375 C7.8340625 11.869375 7.5040625 10.879375 7.1640625 9.859375 C5.5140625 9.859375 3.8640625 9.859375 2.1640625 9.859375 C2.4940625 12.169375 2.8240625 14.479375 3.1640625 16.859375 C1.1640625 15.734375 1.1640625 15.734375 -0.8359375 13.859375 C-1.0234375 10.796875 -1.0234375 10.796875 -0.8359375 7.859375 C-1.1659375 7.199375 -1.4959375 6.539375 -1.8359375 5.859375 C-3.4859375 6.189375 -5.1359375 6.519375 -6.8359375 6.859375 C-3.63619286 -0.2785169 -3.63619286 -0.2785169 0 0 Z " fill="#C1CD30" transform="translate(79.8359375,12.140625)"/>
<path d="M0 0 C0.99 0.66 1.98 1.32 3 2 C2.75 4.875 2.75 4.875 2 8 C-0.85911239 10.16898181 -2.28443578 10 -6 10 C-6.99 7.03 -7.98 4.06 -9 1 C-5.98131566 -0.50934217 -3.32702771 -0.17510672 0 0 Z " fill="#848704" transform="translate(40,4)"/>
<path d="M0 0 C2.375 0.1875 2.375 0.1875 5 1 C6.125 3.5 6.125 3.5 7 6 C7.99 6.33 8.98 6.66 10 7 C9.49396008 9.16874252 9.00016187 10.99967627 8 13 C7.34 13 6.68 13 6 13 C6 12.34 6 11.68 6 11 C5.38125 10.7525 4.7625 10.505 4.125 10.25 C1.64931313 8.79371361 1.04874998 7.62187494 0 5 C-1.98 5.99 -1.98 5.99 -4 7 C-4 5.02 -4 3.04 -4 1 C-2.515 1.99 -2.515 1.99 -1 3 C-0.67 2.01 -0.34 1.02 0 0 Z " fill="#194D05" transform="translate(37,54)"/>
<path d="M0 0 C4 0 4 0 7 1 C9.61818051 5.40956717 9.19427197 10.04606469 9 15 C8.34 15 7.68 15 7 15 C7 14.34 7 13.68 7 13 C6.34 12.67 5.68 12.34 5 12 C5 9.69 5 7.38 5 5 C3.55802132 6.44197868 2.88213756 8.17691571 2 10 C0.02 10 -1.96 10 -4 10 C-3.34 9.649375 -2.68 9.29875 -2 8.9375 C0.41103961 7.03442858 0.41103961 7.03442858 0.25 3.3125 C0.12625 1.6728125 0.12625 1.6728125 0 0 Z " fill="#235205" transform="translate(32,30)"/>
<path d="M0 0 C0.09796875 0.89460938 0.1959375 1.78921875 0.296875 2.7109375 C1.77647243 14.67526843 4.93970197 23.25678872 12 33 C10.68 33 9.36 33 8 33 C7.773125 32.34 7.54625 31.68 7.3125 31 C6.19677922 28.44978107 5.00835793 26.38065481 3.5 24.0625 C-0.93742139 17.02022063 -1.26205237 11.18185737 -1 3 C-2.65 3 -4.3 3 -6 3 C-6.33 2.34 -6.66 1.68 -7 1 C-2.25 0 -2.25 0 0 0 Z " fill="#95B752" transform="translate(15,50)"/>
<path d="M0 0 C0.66 0 1.32 0 2 0 C0.59193884 3.10050906 -1.12270465 5.4648492 -3.3125 8.0625 C-7.22199303 12.96981343 -9.65253854 18.21247981 -12 24 C-12.66 24 -13.32 24 -14 24 C-14 21.36 -14 18.72 -14 16 C-13.34 16 -12.68 16 -12 16 C-12 15.34 -12 14.68 -12 14 C-11.01 14 -10.02 14 -9 14 C-8.34 11.69 -7.68 9.38 -7 7 C-6.34 7 -5.68 7 -5 7 C-5 6.34 -5 5.68 -5 5 C-5.66 5 -6.32 5 -7 5 C-5.60683123 2.21366246 -3.84019484 2.06507306 -1 1 C-0.67 0.67 -0.34 0.34 0 0 Z " fill="#DBE640" transform="translate(27,26)"/>
<path d="M0 0 C0.33 0 0.66 0 1 0 C1.28784585 3.05116606 1.42463173 5.95770176 1 9 C-1.125 11.1875 -1.125 11.1875 -4 12 C-7.61410244 11.18867088 -10.74739199 9.75140432 -14 8 C-14 7.34 -14 6.68 -14 6 C-11.03 6.495 -11.03 6.495 -8 7 C-8 6.01 -8 5.02 -8 4 C-6.02 4 -4.04 4 -2 4 C-2 4.66 -2 5.32 -2 6 C-1.34 6 -0.68 6 0 6 C0 4.02 0 2.04 0 0 Z " fill="#638D33" transform="translate(41,39)"/>
<path d="M0 0 C0.99 0.66 1.98 1.32 3 2 C2.88487847 3.72985242 2.75744323 5.45888751 2.625 7.1875 C2.55539063 8.15042969 2.48578125 9.11335938 2.4140625 10.10546875 C1.99784147 13.01508938 1.20125904 15.32890774 0 18 C-0.66 18 -1.32 18 -2 18 C-3.3271261 14.0186217 -3.06915913 10.14954773 -3 6 C-1.68 6.33 -0.36 6.66 1 7 C0.67 4.69 0.34 2.38 0 0 Z " fill="#D0E247" transform="translate(36,60)"/>
<path d="M0 0 C0.99 0 1.98 0 3 0 C3 0.66 3 1.32 3 2 C5.475 2.99 5.475 2.99 8 4 C8 4.99 8 5.98 8 7 C6.68 6.67 5.36 6.34 4 6 C4 6.66 4 7.32 4 8 C5.32 8.33 6.64 8.66 8 9 C6.824375 9.185625 6.824375 9.185625 5.625 9.375 C2.85942178 9.79117993 2.85942178 9.79117993 1 12 C-1.68839385 12.26991906 -4.29141936 12.08737357 -7 12 C-7 11.34 -7 10.68 -7 10 C-4.36 9.34 -1.72 8.68 1 8 C1.20970559 3.85906302 1.20970559 3.85906302 0 0 Z " fill="#E4E93B" transform="translate(41,4)"/>
<path d="M0 0 C15.18 0.33 30.36 0.66 46 1 C45.67 2.32 45.34 3.64 45 5 C44.34 5 43.68 5 43 5 C43 4.01 43 3.02 43 2 C22.21 2.495 22.21 2.495 1 3 C0.67 2.01 0.34 1.02 0 0 Z " fill="#96A409" transform="translate(46,64)"/>
<path d="M0 0 C1.10868317 3.32604951 1.54177532 6.53058454 2 10 C2.99 10.33 3.98 10.66 5 11 C5.33 9.68 5.66 8.36 6 7 C6 11.29 6 15.58 6 20 C5.67 20 5.34 20 5 20 C5 18.35 5 16.7 5 15 C4.01 14.67 3.02 14.34 2 14 C1.34 13.01 0.68 12.02 0 11 C-2.05003955 9.80767387 -2.05003955 9.80767387 -4 9 C-3.67 8.67 -3.34 8.34 -3 8 C-2.95907063 5.66702567 -2.95758277 3.33294775 -3 1 C-2.01 0.67 -1.02 0.34 0 0 Z " fill="#F2ED23" transform="translate(92,19)"/>
<path d="M0 0 C0.103125 0.63550781 0.20625 1.27101563 0.3125 1.92578125 C0.539375 2.61027344 0.76625 3.29476562 1 4 C3.96260526 5.23757877 3.96260526 5.23757877 7 6 C8 7 8 7 8.0625 9.5625 C8.041875 10.366875 8.02125 11.17125 8 12 C7.01 12 6.02 12 5 12 C5.33 10.35 5.66 8.7 6 7 C4.02 7 2.04 7 0 7 C-0.33 9.97 -0.66 12.94 -1 16 C-1.99 15.67 -2.98 15.34 -4 15 C-4.22822613 11.04170312 -3.55050009 8.32148459 -2 4.6875 C-1.62875 3.80449219 -1.2575 2.92148437 -0.875 2.01171875 C-0.58625 1.34785156 -0.2975 0.68398438 0 0 Z " fill="#F4ED2E" transform="translate(4,29)"/>
<path d="M0 0 C0.99 0 1.98 0 3 0 C3.33 0.99 3.66 1.98 4 3 C4.99 3.33 5.98 3.66 7 4 C6.67 5.32 6.34 6.64 6 8 C4.35 8.33 2.7 8.66 1 9 C-0.5625 7.25 -0.5625 7.25 -2 5 C-1.75203633 2.83031791 -1.55766393 1.55766393 0 0 Z " fill="#CCCD1A" transform="translate(8,24)"/>
<path d="M0 0 C2.31 0 4.62 0 7 0 C6.67 1.32 6.34 2.64 6 4 C6.66 3.67 7.32 3.34 8 3 C8.33 2.01 8.66 1.02 9 0 C9.66 0 10.32 0 11 0 C11.33 0.99 11.66 1.98 12 3 C12.99 3.33 13.98 3.66 15 4 C15 4.66 15 5.32 15 6 C10.66666667 6 6.33333333 6 2 6 C2 4.35 2 2.7 2 1 C1.34 0.67 0.68 0.34 0 0 Z " fill="#858C09" transform="translate(72,54)"/>
<path d="M0 0 C0.99 0.66 1.98 1.32 3 2 C2.34 4.64 1.68 7.28 1 10 C3.31 10 5.62 10 8 10 C8.33 9.34 8.66 8.68 9 8 C9 8.99 9 9.98 9 11 C6.03 11 3.06 11 0 11 C-0.33 12.65 -0.66 14.3 -1 16 C-1.33 15.34 -1.66 14.68 -2 14 C-2.99 13.67 -3.98 13.34 -5 13 C-4.34 12.67 -3.68 12.34 -3 12 C-2.08514427 9.19521805 -2.08514427 9.19521805 -1.375 5.9375 C-1.11460938 4.83277344 -0.85421875 3.72804688 -0.5859375 2.58984375 C-0.39257812 1.73519531 -0.19921875 0.88054687 0 0 Z " fill="#5A770E" transform="translate(39,65)"/>
<path d="M0 0 C0.99 0 1.98 0 3 0 C2.67 1.32 2.34 2.64 2 4 C2.66 4 3.32 4 4 4 C4 4.66 4 5.32 4 6 C-2.27 6 -8.54 6 -15 6 C-15.33 5.34 -15.66 4.68 -16 4 C-13.36 4 -10.72 4 -8 4 C-8.33 3.01 -8.66 2.02 -9 1 C-7 2 -5 3 -3 4 C-3.33 3.01 -3.66 2.02 -4 1 C-3.34 1 -2.68 1 -2 1 C-2 2.32 -2 3.64 -2 5 C-1.34 5 -0.68 5 0 5 C0 3.35 0 1.7 0 0 Z " fill="#C8D441" transform="translate(62,55)"/>
<path d="M0 0 C0.66 1.32 1.32 2.64 2 4 C3.65 4 5.3 4 7 4 C7.33 5.65 7.66 7.3 8 9 C7.34 8.67 6.68 8.34 6 8 C6 7.34 6 6.68 6 6 C4.68 6 3.36 6 2 6 C1.67 7.32 1.34 8.64 1 10 C0.87625 9.360625 0.7525 8.72125 0.625 8.0625 C0.41875 7.381875 0.2125 6.70125 0 6 C-0.66 5.67 -1.32 5.34 -2 5 C-2.33 5.66 -2.66 6.32 -3 7 C-3.28875 6.38125 -3.5775 5.7625 -3.875 5.125 C-4.93720042 2.86674235 -4.93720042 2.86674235 -7 1 C-4.53721199 -0.231394 -2.7204945 -0.07159196 0 0 Z " fill="#738408" transform="translate(38,25)"/>
<path d="M0 0 C2.875 -0.1875 2.875 -0.1875 6 0 C8 3 8 3 8 7 C1.375 7.25 1.375 7.25 -2 5 C-1.34 3.35 -0.68 1.7 0 0 Z " fill="#ACB628" transform="translate(65,54)"/>
<path d="M0 0 C0.93199219 -0.00257812 1.86398438 -0.00515625 2.82421875 -0.0078125 C3.80003906 -0.00007813 4.77585937 0.00765625 5.78125 0.015625 C6.75707031 0.00789063 7.73289062 0.00015625 8.73828125 -0.0078125 C9.67027344 -0.00523438 10.60226563 -0.00265625 11.5625 0 C12.41908203 0.00225586 13.27566406 0.00451172 14.15820312 0.00683594 C16.28125 0.265625 16.28125 0.265625 18.28125 2.265625 C17.90625 4.390625 17.90625 4.390625 17.28125 6.265625 C16.62125 6.265625 15.96125 6.265625 15.28125 6.265625 C15.61125 4.945625 15.94125 3.625625 16.28125 2.265625 C13.97125 2.265625 11.66125 2.265625 9.28125 2.265625 C8.95125 3.585625 8.62125 4.905625 8.28125 6.265625 C8.28125 4.945625 8.28125 3.625625 8.28125 2.265625 C7.29125 2.265625 6.30125 2.265625 5.28125 2.265625 C4.95125 2.925625 4.62125 3.585625 4.28125 4.265625 C4.28125 3.605625 4.28125 2.945625 4.28125 2.265625 C3.29125 2.595625 2.30125 2.925625 1.28125 3.265625 C-0.76171875 3.14453125 -0.76171875 3.14453125 -2.90625 2.828125 C-4.164375 2.6425 -5.4225 2.456875 -6.71875 2.265625 C-4.22817749 -0.22494751 -3.43402341 0.0090437 0 0 Z " fill="#E4E437" transform="translate(62.71875,51.734375)"/>
<path d="M0 0 C1 3 1 3 1 4 C2.32 4.66 3.64 5.32 5 6 C4.67 6.66 4.34 7.32 4 8 C1.4375 8.625 1.4375 8.625 -1 9 C-1 8.34 -1 7.68 -1 7 C-4.11332248 7.66868314 -4.11332248 7.66868314 -5.1875 10.0625 C-5.455625 10.701875 -5.72375 11.34125 -6 12 C-6.66 12 -7.32 12 -8 12 C-6.49087042 7.01987239 -3.44338151 3.75740058 0 0 Z " fill="#385F06" transform="translate(27,29)"/>
<path d="M0 0 C-0.33 0.99 -0.66 1.98 -1 3 C-2.32148827 3.37756808 -3.65835921 3.7018576 -5 4 C-5.78375 4.53625 -6.5675 5.0725 -7.375 5.625 C-10.6905945 7.36173998 -12.44660452 6.90900815 -16 6 C-16 5.34 -16 4.68 -16 4 C-12.535 3.505 -12.535 3.505 -9 3 C-9 2.34 -9 1.68 -9 1 C-2.25 -1.125 -2.25 -1.125 0 0 Z " fill="#F3EF28" transform="translate(79,85)"/>
<path d="M0 0 C0.33 0.66 0.66 1.32 1 2 C3.36186139 3.26145768 3.36186139 3.26145768 6 4 C6.99 3.67 7.98 3.34 9 3 C9.33 2.01 9.66 1.02 10 0 C10.1953125 2.05078125 10.390625 4.1015625 10.5859375 6.15234375 C10.72257812 6.76207031 10.85921875 7.37179688 11 8 C11.66 8.33 12.32 8.66 13 9 C6.54972485 8.73672346 3.52084209 6.49335977 -1 2 C-0.67 1.34 -0.34 0.68 0 0 Z " fill="#365902" transform="translate(27,80)"/>
<path d="M0 0 C0.66 0.99 1.32 1.98 2 3 C1.814375 3.61875 1.62875 4.2375 1.4375 4.875 C0.7925953 8.00739426 2.30492574 9.39219345 4 12 C4.33333333 13.33333333 4.66666667 14.66666667 5 16 C5.66 16.33 6.32 16.66 7 17 C6.67 18.32 6.34 19.64 6 21 C-2.35326087 9.17934783 -2.35326087 9.17934783 -1.6875 3.1875 C-1 1 -1 1 0 0 Z " fill="#3B6003" transform="translate(7,54)"/>
<path d="M0 0 C0.33 0.99 0.66 1.98 1 3 C2.65 3.33 4.3 3.66 6 4 C6 5.32 6 6.64 6 8 C5.34 8.66 4.68 9.32 4 10 C1.875 9.625 1.875 9.625 0 9 C-0.0928125 8.1028125 -0.0928125 8.1028125 -0.1875 7.1875 C-1.3236757 4.12856542 -3.17330142 3.44958901 -6 2 C-5.01 1.67 -4.02 1.34 -3 1 C-2.01 1.66 -1.02 2.32 0 3 C0 2.01 0 1.02 0 0 Z " fill="#7E9C2E" transform="translate(43,51)"/>
<path d="M0 0 C0.36272727 6.40818182 0.36272727 6.40818182 -1.1875 8.9375 C-3.56041618 10.32851983 -5.29686424 10.21917317 -8 10 C-8.33 9.01 -8.66 8.02 -9 7 C-7.02 7 -5.04 7 -3 7 C-2.67 5.35 -2.34 3.7 -2 2 C-4.64 2.33 -7.28 2.66 -10 3 C-10 2.34 -10 1.68 -10 1 C-8.71073008 0.63720544 -7.41846728 0.28503302 -6.125 -0.0625 C-5.40570313 -0.25972656 -4.68640625 -0.45695312 -3.9453125 -0.66015625 C-2 -1 -2 -1 0 0 Z " fill="#808903" transform="translate(97,40)"/>
<path d="M0 0 C1.66611905 -0.042721 3.33382885 -0.04063832 5 0 C6 1 6 1 6.0625 3.5625 C6.041875 4.366875 6.02125 5.17125 6 6 C3.625 6.625 3.625 6.625 1 7 C0.34 6.34 -0.32 5.68 -1 5 C-0.625 2.375 -0.625 2.375 0 0 Z " fill="#E9ED3A" transform="translate(87,31)"/>
<path d="M0 0 C1.66611905 -0.042721 3.33382885 -0.04063832 5 0 C6 1 6 1 6.0625 3.5625 C6.041875 4.366875 6.02125 5.17125 6 6 C3.625 6.625 3.625 6.625 1 7 C0.34 6.34 -0.32 5.68 -1 5 C-0.625 2.375 -0.625 2.375 0 0 Z " fill="#E9EA39" transform="translate(82,21)"/>
<path d="M0 0 C0.33 3.3 0.66 6.6 1 10 C0.01 9.67 -0.98 9.34 -2 9 C-2.33 7.35 -2.66 5.7 -3 4 C-3.37125 4.515625 -3.7425 5.03125 -4.125 5.5625 C-6 7 -6 7 -9.1875 6.6875 C-10.115625 6.460625 -11.04375 6.23375 -12 6 C-11.01 5.01 -10.02 4.02 -9 3 C-9 3.66 -9 4.32 -9 5 C-8.071875 4.175 -7.14375 3.35 -6.1875 2.5 C-3.375 0 -3.375 0 0 0 Z " fill="#949605" transform="translate(71,7)"/>
<path d="M0 0 C1.32 0 2.64 0 4 0 C4.33 0.66 4.66 1.32 5 2 C5.66 1.34 6.32 0.68 7 0 C7 1.32 7 2.64 7 4 C5.68 4 4.36 4 3 4 C3 8.29 3 12.58 3 17 C2.67 17 2.34 17 2 17 C1.66151348 15.10507994 1.32943089 13.20901534 1 11.3125 C0.814375 10.25675781 0.62875 9.20101562 0.4375 8.11328125 C0.04931926 5.35095938 -0.08259976 2.78257957 0 0 Z " fill="#D6E039" transform="translate(40,31)"/>
<path d="M0 0 C0.33 0.66 0.66 1.32 1 2 C3.52733235 2.65555119 3.52733235 2.65555119 6 3 C3 5 3 5 -1 5 C-1 5.66 -1 6.32 -1 7 C-3.97 7 -6.94 7 -10 7 C-6.76478258 4.51137122 -3.40739705 2.24578442 0 0 Z " fill="#8A9D14" transform="translate(64,84)"/>
<path d="M0 0 C6.75 0.875 6.75 0.875 9 2 C8.01 2.33 7.02 2.66 6 3 C6 3.66 6 4.32 6 5 C3.36 5.33 0.72 5.66 -2 6 C-2 6.99 -2 7.98 -2 9 C-2.66 9 -3.32 9 -4 9 C-3.67 7.02 -3.34 5.04 -3 3 C-2.01 2.67 -1.02 2.34 0 2 C0 1.34 0 0.68 0 0 Z " fill="#E7E938" transform="translate(87,48)"/>
<path d="M0 0 C1.67542976 0.28604898 3.34385343 0.61781233 5 1 C5.625 2.875 5.625 2.875 6 5 C5.34 5.66 4.68 6.32 4 7 C2.68 7 1.36 7 0 7 C-0.38133299 5.0085944 -0.71325582 3.00720923 -1 1 C-0.67 0.67 -0.34 0.34 0 0 Z " fill="#DDE339" transform="translate(35,5)"/>
<path d="M0 0 C1.98 0 3.96 0 6 0 C6 1.98 6 3.96 6 6 C5.34 5.67 4.68 5.34 4 5 C3.67 6.32 3.34 7.64 3 9 C1.68 8.67 0.36 8.34 -1 8 C-0.67 5.36 -0.34 2.72 0 0 Z " fill="#295C0B" transform="translate(8,53)"/>
<path d="M0 0 C2.31 0 4.62 0 7 0 C7 1.65 7 3.3 7 5 C4.625 5.625 4.625 5.625 2 6 C1.34 5.34 0.68 4.68 0 4 C0 2.68 0 1.36 0 0 Z " fill="#E2EA3C" transform="translate(88,42)"/>
<path d="M0 0 C2.00720923 0.28674418 4.0085944 0.61866701 6 1 C5.6875 3.375 5.6875 3.375 5 6 C2 8 2 8 -1 8 C-1.04241723 5.66705225 -1.04092937 3.33297433 -1 1 C-0.67 0.67 -0.34 0.34 0 0 Z " fill="#BCC11B" transform="translate(4,35)"/>
<path d="M0 0 C2 2 2 2 2.875 4.5 C3.78208622 7.1395076 3.78208622 7.1395076 6.125 8.3125 C6.74375 8.539375 7.3625 8.76625 8 9 C8 9.33 8 9.66 8 10 C6.35 10 4.7 10 3 10 C3.66 11.98 4.32 13.96 5 16 C4.34 16.33 3.68 16.66 3 17 C2.49255577 15.10614563 1.99435426 13.20981334 1.5 11.3125 C1.2215625 10.25675781 0.943125 9.20101562 0.65625 8.11328125 C0.0608285 5.28857328 -0.12786492 2.87163292 0 0 Z " fill="#AEB213" transform="translate(84,31)"/>
<path d="M0 0 C1.98 0 3.96 0 6 0 C6 0.99 6 1.98 6 3 C6.66 3.33 7.32 3.66 8 4 C6.35 4 4.7 4 3 4 C3 4.66 3 5.32 3 6 C-0.3 6.33 -3.6 6.66 -7 7 C-7 6.34 -7 5.68 -7 5 C-4.03 5 -1.06 5 2 5 C1.34 3.35 0.68 1.7 0 0 Z " fill="#8AA31F" transform="translate(73,77)"/>
<path d="M0 0 C1.32 0.66 2.64 1.32 4 2 C3.67226629 5.03153686 3.35865103 6.61573103 1.25 8.875 C-1.59474935 10.29737468 -3.01616624 9.91172698 -6 9 C-6.33 7.35 -6.66 5.7 -7 4 C-6.608125 4.515625 -6.21625 5.03125 -5.8125 5.5625 C-5.214375 6.036875 -4.61625 6.51125 -4 7 C-1.34533951 6.76956136 -1.34533951 6.76956136 1 6 C1.33 5.01 1.66 4.02 2 3 C1.01 3 0.02 3 -1 3 C-0.67 2.01 -0.34 1.02 0 0 Z " fill="#848704" transform="translate(13,25)"/>
<path d="M0 0 C1.8125 2 1.8125 2 3 4 C2.34 4.66 1.68 5.32 1 6 C0.67 5.01 0.34 4.02 0 3 C-1.65 3 -3.3 3 -5 3 C-4.67 5.31 -4.34 7.62 -4 10 C-6 8.8125 -6 8.8125 -8 7 C-8.4375 4.4375 -8.4375 4.4375 -8 2 C-4.77856724 -0.14762184 -3.7404533 -0.561068 0 0 Z " fill="#A6A207" transform="translate(87,19)"/>
<path d="M0 0 C1.73443359 0.11794922 1.73443359 0.11794922 3.50390625 0.23828125 C6.4375 0.6875 6.4375 0.6875 8.4375 2.6875 C7.344375 2.666875 6.25125 2.64625 5.125 2.625 C1.49365809 2.50205548 1.49365809 2.50205548 -1.5625 3.6875 C-3.23672986 3.39450977 -4.90428227 3.06059899 -6.5625 2.6875 C-7.5525 2.6875 -8.5425 2.6875 -9.5625 2.6875 C-9.5625 2.0275 -9.5625 1.3675 -9.5625 0.6875 C-6.07154461 -0.4761518 -3.65960825 -0.2739595 0 0 Z " fill="#F0EE2C" transform="translate(55.5625,12.3125)"/>
<path d="M0 0 C0.33 1.32 0.66 2.64 1 4 C1.66 4 2.32 4 3 4 C3 7.63 3 11.26 3 15 C2.01 14.34 1.02 13.68 0 13 C-0.29296875 9.9609375 -0.29296875 9.9609375 -0.1875 6.375 C-0.16042969 5.18648437 -0.13335937 3.99796875 -0.10546875 2.7734375 C-0.07066406 1.85820313 -0.03585938 0.94296875 0 0 Z " fill="#E7EC32" transform="translate(2,50)"/>
<path d="M0 0 C0.33 0.66 0.66 1.32 1 2 C1.99 2.33 2.98 2.66 4 3 C3.34 3 2.68 3 2 3 C1.7834375 4.175625 1.7834375 4.175625 1.5625 5.375 C1 8 1 8 0 10 C-0.99 9.67 -1.98 9.34 -3 9 C-3.26218749 5.85375007 -3.24754367 4.38162983 -1.5 1.6875 C-1.005 1.130625 -0.51 0.57375 0 0 Z " fill="#EDE91A" transform="translate(18,30)"/>
<path d="M0 0 C0 2 0 2 -1.5 3.625 C-1.995 4.07875 -2.49 4.5325 -3 5 C-2.34 5.33 -1.68 5.66 -1 6 C-1 6.66 -1 7.32 -1 8 C-0.01 8.33 0.98 8.66 2 9 C1.67 9.99 1.34 10.98 1 12 C-1.24609375 10.046875 -1.24609375 10.046875 -3.4921875 8.09375 C-4.95936421 6.80427542 -4.95936421 6.80427542 -7 7 C-3.86206897 0 -3.86206897 0 0 0 Z " fill="#8C8F06" transform="translate(17,15)"/>
<path d="M0 0 C4.29 0 8.58 0 13 0 C13 0.66 13 1.32 13 2 C12.34 2 11.68 2 11 2 C11 2.66 11 3.32 11 4 C10.01 4.33 9.02 4.66 8 5 C7.34 4.67 6.68 4.34 6 4 C6 3.01 6 2.02 6 1 C4.02 1 2.04 1 0 1 C0 0.67 0 0.34 0 0 Z " fill="#B0B917" transform="translate(73,76)"/>
<path d="M0 0 C1.98 0 3.96 0 6 0 C6.33 1.32 6.66 2.64 7 4 C4.03 4 1.06 4 -2 4 C-2 3.34 -2 2.68 -2 2 C-1.34 2 -0.68 2 0 2 C0 1.34 0 0.68 0 0 Z " fill="#97AE11" transform="translate(40,77)"/>
<path d="M0 0 C0.33 0 0.66 0 1 0 C1.98248524 4.0527516 2.08159574 7.83861737 2 12 C-0.475 11.01 -0.475 11.01 -3 10 C-3 9.01 -3 8.02 -3 7 C-2.34 7.33 -1.68 7.66 -1 8 C-0.67 5.36 -0.34 2.72 0 0 Z " fill="#1C4D03" transform="translate(12,54)"/>
<path d="M0 0 C1.3125 2.0625 1.3125 2.0625 2 4 C-2.05606165 3.53199289 -5.46588679 3.12046792 -9 1 C-5.69708067 -1.07961587 -3.69218461 -1.36027854 0 0 Z " fill="#E0E933" transform="translate(27,9)"/>
<path d="M0 0 C0.99 0.33 1.98 0.66 3 1 C2.34 1 1.68 1 1 1 C1.33 1.556875 1.66 2.11375 2 2.6875 C3.1309601 5.30284522 3.15662974 7.1806646 3 10 C2.01 9.67 1.02 9.34 0 9 C-1.3125 6.125 -1.3125 6.125 -2 3 C-1.34 2.01 -0.68 1.02 0 0 Z " fill="#DBE23C" transform="translate(30,4)"/>
<path d="M0 0 C0.66 0 1.32 0 2 0 C2 1.32 2 2.64 2 4 C3.32 4.33 4.64 4.66 6 5 C0.80790596 5.21192221 -3.126739 4.5912689 -8 3 C-8 2.67 -8 2.34 -8 2 C-5.36 2 -2.72 2 0 2 C0 1.34 0 0.68 0 0 Z " fill="#59700B" transform="translate(45,87)"/>
<path d="M0 0 C1.98 0 3.96 0 6 0 C5.49396008 2.16874252 5.00016187 3.99967627 4 6 C3.34 6 2.68 6 2 6 C2 5.34 2 4.68 2 4 C1.34 4 0.68 4 0 4 C0 2.68 0 1.36 0 0 Z " fill="#4E6D18" transform="translate(41,61)"/>
<path d="M0 0 C2.50866154 1.1759351 3.51540594 2.63637921 5 4.9375 C4.401875 4.628125 3.80375 4.31875 3.1875 4 C0.91043228 2.83540296 0.91043228 2.83540296 -2 1.9375 C-2.268125 2.576875 -2.53625 3.21625 -2.8125 3.875 C-4 5.9375 -4 5.9375 -7 6.9375 C-3.83634431 -0.11988576 -3.83634431 -0.11988576 0 0 Z " fill="#838C02" transform="translate(80,12.0625)"/>
<path d="M0 0 C2.475 0.99 2.475 0.99 5 2 C4.67 3.65 4.34 5.3 4 7 C2.35 7.33 0.7 7.66 -1 8 C-1 7.34 -1 6.68 -1 6 C0.32 5.34 1.64 4.68 3 4 C1.35 3.67 -0.3 3.34 -2 3 C-1.34 2.01 -0.68 1.02 0 0 Z " fill="#6A9942" transform="translate(28,31)"/>
<path d="M0 0 C0.33 0.66 0.66 1.32 1 2 C0.34 2 -0.32 2 -1 2 C-1.12375 2.639375 -1.2475 3.27875 -1.375 3.9375 C-1.58125 4.618125 -1.7875 5.29875 -2 6 C-2.99 6.495 -2.99 6.495 -4 7 C-4.66 6.67 -5.32 6.34 -6 6 C-5.67 4.35 -5.34 2.7 -5 1 C-3.35 0.67 -1.7 0.34 0 0 Z " fill="#CFD22E" transform="translate(22,17)"/>
<path d="M0 0 C1.231394 3.69418201 0.64432764 6.2056261 0 10 C-1.32 9.67 -2.64 9.34 -4 9 C-3.67 8.67 -3.34 8.34 -3 8 C-2.95907063 5.66702567 -2.95758277 3.33294775 -3 1 C-2.01 0.67 -1.02 0.34 0 0 Z " fill="#E9E537" transform="translate(92,19)"/>
<path d="M0 0 C4.66666667 2.33333333 9.33333333 4.66666667 14 7 C13.67 7.66 13.34 8.32 13 9 C8.05 7.02 8.05 7.02 3 5 C3 4.34 3 3.68 3 3 C2.01 2.67 1.02 2.34 0 2 C0 1.34 0 0.68 0 0 Z " fill="#D8E246" transform="translate(26,83)"/>
<path d="M0 0 C0.66 0 1.32 0 2 0 C2.33 0.99 2.66 1.98 3 3 C3.99 3.33 4.98 3.66 6 4 C6 4.66 6 5.32 6 6 C3.03 6 0.06 6 -3 6 C-2.01 4.02 -1.02 2.04 0 0 Z " fill="#959D11" transform="translate(81,54)"/>
<path d="M0 0 C0.99 1.485 0.99 1.485 2 3 C3.65 2.34 5.3 1.68 7 1 C6.67 2.32 6.34 3.64 6 5 C4.34385343 5.38218767 2.67542976 5.71395102 1 6 C0 5 0 5 -0.0625 2.4375 C-0.041875 1.633125 -0.02125 0.82875 0 0 Z " fill="#EBEA46" transform="translate(8,27)"/>
<path d="M0 0 C0.99 0 1.98 0 3 0 C3.12375 0.639375 3.2475 1.27875 3.375 1.9375 C3.684375 2.9584375 3.684375 2.9584375 4 4 C4.66 4.33 5.32 4.66 6 5 C3.69 6.98 1.38 8.96 -1 11 C-0.34 9.02 0.32 7.04 1 5 C1.66 5 2.32 5 3 5 C2.01 3.35 1.02 1.7 0 0 Z " fill="#A8AC0A" transform="translate(20,14)"/>
<path d="M0 0 C1.65 0.33 3.3 0.66 5 1 C5 1.66 5 2.32 5 3 C3.35 3 1.7 3 0 3 C-0.33 3.99 -0.66 4.98 -1 6 C-1.99 5.67 -2.98 5.34 -4 5 C-3.34 4.01 -2.68 3.02 -2 2 C-1.34 2 -0.68 2 0 2 C0 1.34 0 0.68 0 0 Z " fill="#E4EA3A" transform="translate(17,15)"/>
<path d="M0 0 C2.4375 0.8125 2.4375 0.8125 4.4375 3.8125 C3.7775 3.8125 3.1175 3.8125 2.4375 3.8125 C2.4375 4.4725 2.4375 5.1325 2.4375 5.8125 C1.4475 5.8125 0.4575 5.8125 -0.5625 5.8125 C-0.8925 4.8225 -1.2225 3.8325 -1.5625 2.8125 C-3.57758358 2.07926204 -3.57758358 2.07926204 -5.5625 1.8125 C-2.5625 -0.1875 -2.5625 -0.1875 0 0 Z " fill="#DDDC14" transform="translate(17.5625,8.1875)"/>
<path d="M0 0 C5.875 1.875 5.875 1.875 7 3 C7.04063832 4.66617115 7.042721 6.33388095 7 8 C6.01 8 5.02 8 4 8 C4.33 6.35 4.66 4.7 5 3 C3.35 2.67 1.7 2.34 0 2 C0 1.34 0 0.68 0 0 Z " fill="#E5EC43" transform="translate(5,33)"/>
<path d="M0 0 C0.5625 1.9375 0.5625 1.9375 1 4 C0.67 4.33 0.34 4.66 0 5 C0.66 5.66 1.32 6.32 2 7 C0.02 7.99 -1.96 8.98 -4 10 C-3.67 8.68 -3.34 7.36 -3 6 C-3.99 5.67 -4.98 5.34 -6 5 C-4.35 4.67 -2.7 4.34 -1 4 C-0.67 2.68 -0.34 1.36 0 0 Z " fill="#727B04" transform="translate(89,23)"/>
<path d="M0 0 C0.99 0.33 1.98 0.66 3 1 C4.2077558 4.62326739 3.54311128 5.64146369 2 9 C0.4375 7.3125 0.4375 7.3125 -1 5 C-0.6875 2.25 -0.6875 2.25 0 0 Z " fill="#EBED39" transform="translate(76,17)"/>
<path d="M0 0 C1.134375 0.020625 2.26875 0.04125 3.4375 0.0625 C3.4375 0.7225 3.4375 1.3825 3.4375 2.0625 C2.344375 2.35125 1.25125 2.64 0.125 2.9375 C-3.60263845 3.88143204 -3.60263845 3.88143204 -6.5625 6.0625 C-4.25951087 0.07472826 -4.25951087 0.07472826 0 0 Z " fill="#9FC863" transform="translate(65.5625,78.9375)"/>
<path d="M0 0 C2.9156164 3.54039134 5.50127818 7.1626772 8 11 C6.68 11 5.36 11 4 11 C3.731875 10.278125 3.46375 9.55625 3.1875 8.8125 C2.01017502 6.02409874 0.60854116 3.55904276 -1 1 C-0.67 0.67 -0.34 0.34 0 0 Z " fill="#689227" transform="translate(19,72)"/>
<path d="M0 0 C1.32 0 2.64 0 4 0 C4 0.66 4 1.32 4 2 C4.66 2 5.32 2 6 2 C9 6.38461538 9 6.38461538 9 9 C7.68 8.67 6.36 8.34 5 8 C5.33 7.34 5.66 6.68 6 6 C5.2575 5.319375 5.2575 5.319375 4.5 4.625 C3 3 3 3 3 1 C2.01 0.67 1.02 0.34 0 0 Z " fill="#345A03" transform="translate(66,73)"/>
<path d="M0 0 C0.66 1.32 1.32 2.64 2 4 C2.66 4 3.32 4 4 4 C4.33 2.68 4.66 1.36 5 0 C5 0.99 5 1.98 5 3 C6.32 3.33 7.64 3.66 9 4 C8 5 8 5 6.15234375 5.09765625 C4.1015625 5.06510417 2.05078125 5.03255208 0 5 C-0.33 4.34 -0.66 3.68 -1 3 C-0.67 2.01 -0.34 1.02 0 0 Z " fill="#C7CB23" transform="translate(51,8)"/>
<path d="M0 0 C1.32 0.33 2.64 0.66 4 1 C3.01 1 2.02 1 1 1 C0.34 2.32 -0.32 3.64 -1 5 C-2.98 5 -4.96 5 -7 5 C-7 4.34 -7 3.68 -7 3 C-3.535 2.505 -3.535 2.505 0 2 C0 1.34 0 0.68 0 0 Z " fill="#DADB27" transform="translate(70,86)"/>
<path d="M0 0 C0.66 0.33 1.32 0.66 2 1 C0.5361389 5.39158329 -1.97831338 5.87947433 -6 8 C-5.67 6.68 -5.34 5.36 -5 4 C-4.34 4.33 -3.68 4.66 -3 5 C-2.5359375 4.0409375 -2.5359375 4.0409375 -2.0625 3.0625 C-1 1 -1 1 0 0 Z " fill="#365C08" transform="translate(63,81)"/>
<path d="M0 0 C1.32 0.66 2.64 1.32 4 2 C3 5 3 5 0.9375 6.1875 C0.298125 6.455625 -0.34125 6.72375 -1 7 C-1.33 5.68 -1.66 4.36 -2 3 C-1.34 3 -0.68 3 0 3 C0 2.01 0 1.02 0 0 Z " fill="#1B4D02" transform="translate(33,78)"/>
<path d="M0 0 C1.485 0.99 1.485 0.99 3 2 C3.25660094 5.07921132 3.39431504 7.21136993 2 10 C1.01 9.67 0.02 9.34 -1 9 C-1 8.34 -1 7.68 -1 7 C-0.34 7 0.32 7 1 7 C0.67 4.69 0.34 2.38 0 0 Z " fill="#BCD555" transform="translate(36,60)"/>
<path d="M0 0 C0.33 0 0.66 0 1 0 C1.268125 0.886875 1.53625 1.77375 1.8125 2.6875 C2.91710819 5.76877548 4.22849144 8.26221405 6 11 C3 11 3 11 1.3125 9.4375 C-0.43416783 6.19368832 -0.20922503 3.62656715 0 0 Z " fill="#CEDD3C" transform="translate(5,60)"/>
<path d="M0 0 C1.32 1.65 2.64 3.3 4 5 C1 5 -2 5 -5 5 C-5 4.01 -5 3.02 -5 2 C-2.525 2.495 -2.525 2.495 0 3 C0 2.01 0 1.02 0 0 Z " fill="#E3EA30" transform="translate(61,6)"/>
<path d="M0 0 C0 2.31 0 4.62 0 7 C-2.03833424 5.7260411 -4.03852126 4.38938077 -6 3 C-6 2.34 -6 1.68 -6 1 C-3.92446352 0.4465236 -2.15634036 0 0 0 Z " fill="#DFEA42" transform="translate(53,3)"/>
<path d="M0 0 C0.33 0.99 0.66 1.98 1 3 C-5.625 3.25 -5.625 3.25 -9 1 C-5.92677456 0.08941469 -3.19902639 -0.08886184 0 0 Z " fill="#F6EE2B" transform="translate(63,0)"/>
<path d="M0 0 C0 0.66 0 1.32 0 2 C-1.65 2 -3.3 2 -5 2 C-5 2.66 -5 3.32 -5 4 C-6.65 4 -8.3 4 -10 4 C-9.34 3.67 -8.68 3.34 -8 3 C-8 2.34 -8 1.68 -8 1 C-5.29120665 -0.35439668 -2.99066732 -0.06501451 0 0 Z " fill="#A2B832" transform="translate(73,83)"/>
<path d="M0 0 C2.475 0.495 2.475 0.495 5 1 C5 1.66 5 2.32 5 3 C6.98 3 8.96 3 11 3 C9.4375 4.1875 9.4375 4.1875 7 5 C3.25 3.625 3.25 3.625 0 2 C0 1.34 0 0.68 0 0 Z " fill="#F6ED28" transform="translate(47,49)"/>
<path d="M0 0 C0.99 0 1.98 0 3 0 C3 1.98 3 3.96 3 6 C1.68 5.34 0.36 4.68 -1 4 C-1 1 -1 1 0 0 Z " fill="#2F5402" transform="translate(40,48)"/>
<path d="M0 0 C0.78375 0.04125 1.5675 0.0825 2.375 0.125 C1.715 2.435 1.055 4.745 0.375 7.125 C-1.275 5.475 -2.925 3.825 -4.625 2.125 C-2.625 0.125 -2.625 0.125 0 0 Z " fill="#849F27" transform="translate(35.625,24.875)"/>
<path d="M0 0 C2.97 1.98 2.97 1.98 6 4 C5.67 4.66 5.34 5.32 5 6 C4.01 5.67 3.02 5.34 2 5 C1.01 5 0.02 5 -1 5 C-0.67 3.35 -0.34 1.7 0 0 Z " fill="#DAE645" transform="translate(11,21)"/>
<path d="M0 0 C0.66 1.32 1.32 2.64 2 4 C1.01 4.33 0.02 4.66 -1 5 C-1.33 5.99 -1.66 6.98 -2 8 C-2.99 6.68 -3.98 5.36 -5 4 C-3.35 3.67 -1.7 3.34 0 3 C0 2.01 0 1.02 0 0 Z " fill="#2C5703" transform="translate(42,56)"/>
<path d="M0 0 C2.31 0.66 4.62 1.32 7 2 C4.64046906 4.35953094 3.22104383 4.49141413 0 5 C-0.5625 3.0625 -0.5625 3.0625 -1 1 C-0.67 0.67 -0.34 0.34 0 0 Z " fill="#E0E63B" transform="translate(39,25)"/>
<path d="M0 0 C1.65 0 3.3 0 5 0 C5.33 0.99 5.66 1.98 6 3 C5 4 5 4 2.4375 4.0625 C1.2309375 4.0315625 1.2309375 4.0315625 0 4 C0 2.68 0 1.36 0 0 Z " fill="#9AB619" transform="translate(39,83)"/>
<path d="M0 0 C0.99 0.33 1.98 0.66 3 1 C4.33106622 1.34227417 5.66400079 1.67751743 7 2 C7 2.66 7 3.32 7 4 C4.69 4 2.38 4 0 4 C0 2.68 0 1.36 0 0 Z " fill="#9EBA3B" transform="translate(40,71)"/>
<path d="M0 0 C2.52588702 2.36292656 3.88820837 3.66462511 5 7 C1.34683329 5.75023244 0.21934164 5.32901247 -2 2 C-1.34 2 -0.68 2 0 2 C0 1.34 0 0.68 0 0 Z " fill="#3C5903" transform="translate(19,75)"/>
<path d="M0 0 C0.66 0.33 1.32 0.66 2 1 C2 3.31 2 5.62 2 8 C0.68 7.34 -0.64 6.68 -2 6 C-1.34 6 -0.68 6 0 6 C-0.2784375 4.7934375 -0.2784375 4.7934375 -0.5625 3.5625 C-0.706875 2.716875 -0.85125 1.87125 -1 1 C-0.67 0.67 -0.34 0.34 0 0 Z " fill="#385C0A" transform="translate(35,59)"/>
<path d="M0 0 C0.66 0 1.32 0 2 0 C2 1.98 2 3.96 2 6 C0.02 6 -1.96 6 -4 6 C-3.525625 5.566875 -3.05125 5.13375 -2.5625 4.6875 C-0.76313043 2.97690387 -0.76313043 2.97690387 0 0 Z " fill="#E0E438" transform="translate(95,34)"/>
<path d="M0 0 C0.66 0 1.32 0 2 0 C2.33 1.98 2.66 3.96 3 6 C1.35 6 -0.3 6 -2 6 C-1.34 4.02 -0.68 2.04 0 0 Z " fill="#8C940F" transform="translate(65,54)"/>
<path d="M0 0 C2.3431213 0.25561323 4.67843403 0.59270772 7 1 C7.33 1.66 7.66 2.32 8 3 C5.69 3 3.38 3 1 3 C0.67 2.01 0.34 1.02 0 0 Z " fill="#E5EB40" transform="translate(23,14)"/>
</svg>
