<svg xmlns="http://www.w3.org/2000/svg" xmlns:xlink="http://www.w3.org/1999/xlink" version="1.1" x="0px" y="0px" viewBox="0 0 512 640" style="enable-background:new 0 0 512 512;" xml:space="preserve"><path d="M447,211.1c5.9-40.3-13.5-80.1-48.9-100.2l-7.4-4.3c-1.3-0.8-2.6-1.6-3.7-2.6l-37.4-32.1c-12.3-10.7-30.6-10.7-43,0  l-37.4,32.1c-1.2,1-2.4,1.9-3.7,2.6l-7.4,4.3c-0.7,0.4-1.3,0.8-1.9,1.2c-0.6-0.4-1.3-0.8-1.9-1.2l-7.4-4.3c-1.3-0.8-2.6-1.6-3.7-2.6  l-37.4-32.1c-12.3-10.7-30.6-10.7-43,0l-37.4,32.1c-1.2,1-2.4,1.9-3.7,2.6l-7.4,4.3C78.6,131,59.2,170.8,65,211.1  c-32.5,12.4-49,27.5-49,44.9v120c0,21.3,25.5,39.6,73.8,53c44.5,12.3,103.5,19,166.2,19s121.7-6.8,166.2-19  c48.3-13.3,73.8-31.6,73.8-53V256C496,238.6,479.5,223.5,447,211.1z M480,256c0,7.3-8.9,17.4-32,27.3v-54.5  C468.2,237.4,480,247.3,480,256z M376,318.9v103.8c-7.8,1.3-15.8,2.5-24,3.5V322.4C360.2,321.3,368.2,320.2,376,318.9z M256,312  c-61.3,0-118.8-6.6-161.9-18.5c-5.1-1.4-9.7-2.8-14.1-4.3v-41.2c10,6.7,24.6,12.6,43.9,17.6c35.4,9.2,82.3,14.3,132.1,14.3  s96.7-5.1,132.1-14.3c19.2-5,33.9-10.9,43.9-17.6v41.2c-4.4,1.4-9,2.9-14.1,4.3C374.8,305.4,317.3,312,256,312z M265.9,124.7  l7.4-4.3c2.2-1.3,4.3-2.7,6.2-4.4L316.9,84c6.4-5.5,15.8-5.5,22.1,0l37.4,32.1c1.9,1.6,4,3.1,6.2,4.4l7.4,4.3  c38.6,22.1,53,70.7,32.7,110.2c-7.2,4.8-19.3,10.2-38.7,15.3c-33.6,8.8-78.3,13.7-126,13.8c-37.1-27.1-45.2-79.1-18.1-116.2  C246.9,138.4,255.7,130.5,265.9,124.7L265.9,124.7z M121.9,124.7l7.4-4.3c2.2-1.3,4.3-2.7,6.2-4.4L172.9,84c6.4-5.5,15.8-5.5,22.1,0  l37.4,32.1c1.9,1.6,4,3.1,6.2,4.4l3.2,1.8c-5.5,4.8-10.5,10.3-14.8,16.2c-5-6.1-8.8-13-11.3-20.4l-0.2-0.6l-15.2,5.1l0.2,0.6  c3.7,11.1,9.8,21.2,17.8,29.7c-18.2,36.6-12.1,80.7,15.5,110.9c-40.1-1.3-77.1-5.9-106-13.5c-19.4-5.1-31.5-10.5-38.7-15.3  C68.9,195.4,83.3,146.8,121.9,124.7L121.9,124.7z M64,228.7v54.5c-23.1-9.9-32-20-32-27.3C32,247.3,43.7,237.4,64,228.7z   M94.1,413.5C48.3,400.9,32,385.9,32,376v-92.6c12.4,9.8,31.8,18.4,57.8,25.6c44.5,12.3,103.5,19,166.2,19c27.7,0,54.7-1.3,80-3.9  v103.9c-26.6,2.7-53.3,4-80,3.9C194.7,432,137.2,425.4,94.1,413.5z M417.9,413.5c-8.2,2.2-16.8,4.3-25.9,6.2V316  c10.6-2.1,20.7-4.4,30.2-7.1c26-7.2,45.5-15.8,57.8-25.6V376C480,385.9,463.7,400.9,417.9,413.5z"/><path d="M303.5,382.6c-10.4,0.6-21.1,1-31.7,1.2l0.3,16c10.8-0.2,21.7-0.6,32.3-1.2L303.5,382.6z"/><path d="M61,371.3c42.4,17.2,112.3,27.9,186.9,28.6l0.1-16C175.4,383.3,107.7,373,67,356.5L61,371.3z"/><rect x="320" y="120" width="16" height="48"/><path d="M279.9,164.4c14.8-9.9,25.9-24.4,31.5-41.3l0.2-0.6l-15.2-5.1l-0.2,0.6c-4.5,13.5-13.4,25.1-25.2,33l-3.4,2.3l8.9,13.3  L279.9,164.4z"/><path d="M376.1,164.4l3.4,2.3l8.9-13.3L385,151c-11.8-7.9-20.7-19.5-25.2-33l-0.2-0.6l-15.2,5.1l0.2,0.6  C350.3,140,361.3,154.5,376.1,164.4z"/><rect x="176" y="120" width="16" height="48"/><path d="M135.9,164.4c14.8-9.9,25.9-24.4,31.5-41.3l0.2-0.6l-15.2-5.1l-0.2,0.6c-4.5,13.5-13.4,25.1-25.2,33l-3.4,2.3l8.9,13.3  L135.9,164.4z"/></svg>